<svg width="902" height="371" viewBox="0 0 902 371" fill="none" xmlns="http://www.w3.org/2000/svg">
<g filter="url(#filter0_dd_1_7)">
<path fill-rule="evenodd" clip-rule="evenodd" d="M450.591 261C451.023 255.225 452.167 248.308 453.134 245.629C454.545 241.72 454.747 239.253 454.158 233.129C453.16 222.75 453.286 220.551 455.079 217.083C456.867 213.625 457.061 205.738 455.592 196.193C454.831 191.247 454.896 187.281 455.842 181C457.079 172.782 457.215 172.489 459.934 172.178C461.558 171.991 464.811 172.935 467.636 174.412C470.977 176.159 473.417 176.791 475.339 176.407C477.088 176.057 481.065 176.85 485.852 178.503C490.087 179.965 494.017 180.874 494.587 180.522C496.163 179.548 495.822 175.411 494.043 173.935C492.653 172.781 492.9 172.401 496.119 170.75C498.129 169.718 503.119 168.235 507.208 167.452C516.357 165.702 521.316 163.251 525.611 158.36C530.276 153.046 532.319 147.838 535.662 132.728C540.415 111.249 539.44 104.812 530.68 99.8089C528.457 98.539 526.634 97.2244 526.63 96.8875C526.626 96.5506 527.972 94.5762 529.622 92.5C534.081 86.8888 533.649 84.054 527.52 78.6918C523.006 74.7437 510.671 67.7846 503.622 65.2099C501.165 64.3123 501.199 64.2557 505.622 61.8983L510.122 59.5L506.29 59.1847C500.411 58.7011 492.555 60.7504 488.096 63.9306C485.882 65.5099 482.068 67.3412 479.621 68.0001C477.174 68.659 472.586 70.5035 469.426 72.099C464.516 74.5776 457.622 76.0083 457.622 74.5488C457.622 74.3006 458.293 71.5216 459.113 68.3731C459.933 65.2247 460.386 62.4304 460.119 62.1637C459.37 61.4143 452.873 65.1369 448.625 68.75C444.032 72.6562 442.93 72.7712 441.44 69.5C440.128 66.6216 439.095 66.3259 438.229 68.5818C436.93 71.9673 437.643 77.3934 439.671 79.5519L441.719 81.7327L439.671 89.5547C437.21 98.9501 436.929 107 439.063 107C441.427 107 441.556 108.319 439.601 112.519C436.405 119.385 435.812 133 438.709 133C439.233 133 441.444 131.875 443.622 130.5C445.8 129.125 447.769 128 447.996 128C448.224 128 448.177 133.512 447.891 140.25C447.579 147.601 447.799 154.039 448.443 156.349C449.358 159.633 449.249 160.484 447.698 162.149C444.998 165.046 436.02 182.731 436.834 183.546C437.221 183.932 438.971 183.043 440.723 181.568C442.757 179.857 444.256 179.234 444.869 179.847C445.835 180.813 445.769 181.859 443.531 201C441.772 216.037 441.829 220.467 443.809 222.654C445.241 224.237 445.408 226.135 444.955 235.67C444.564 243.882 444.843 248.675 446.009 253.805C447.273 259.363 447.381 261.937 446.538 266.494C445.957 269.638 445.813 274.076 446.219 276.355L446.956 280.5L448.381 276C449.165 273.525 450.159 266.775 450.591 261ZM463.583 138.5C463.591 146.989 462.333 155.736 460.025 163.25C459.729 164.213 459.797 165 460.176 165C463.253 165 495.638 157.443 497.465 156.299C498.754 155.492 500.651 152.929 501.679 150.603C503.959 145.45 505.846 143.676 511.401 141.464C516.523 139.424 517.245 138.228 519.021 128.837L520.389 121.599L518.422 124.3C515.077 128.892 514.276 127.716 514.984 119.25C515.341 114.987 515.916 109.102 516.262 106.17L516.892 100.84L509.775 93.8764C499.275 83.603 492.489 81.5648 485.217 86.5C480.805 89.4944 478.169 89.6619 475.965 87.0878C475.065 86.0361 473.818 85.3711 473.196 85.61C472.573 85.8489 469.419 85.1344 466.186 84.0222C462.954 82.91 459.973 82 459.561 82C459.15 82 459.714 84.3625 460.813 87.25C463.528 94.379 463.018 103.693 459.528 110.745L456.977 115.9L459.369 118.293C462.537 121.461 463.572 126.424 463.583 138.5Z" fill="#42B4CA"/>
<path fill-rule="evenodd" clip-rule="evenodd" d="M479.177 159.084C486.847 157.363 494.118 155.532 495.336 155.015C496.554 154.499 498.642 151.921 499.978 149.288C502.913 143.501 504.832 141.681 510.302 139.503C513.357 138.287 514.77 137.013 515.552 134.77C517.085 130.374 516.897 129.305 514.48 128.673C512.435 128.138 512.365 127.714 512.94 119.306C513.271 114.463 513.841 108.613 514.206 106.306C514.851 102.236 514.7 101.933 509.121 96.0848C503.151 89.8259 496.825 86 492.446 86C491.046 86 488.376 87.0343 486.511 88.2984C481.206 91.8961 480.206 91.9957 474.752 89.469C471.937 88.1644 468.017 86.6508 466.042 86.1056C462.845 85.2228 462.533 85.2996 463.197 86.8071C463.606 87.7382 464.145 91.7892 464.394 95.8095C464.755 101.642 464.403 104.335 462.651 109.139C460.697 114.499 460.62 115.343 461.946 116.83C466.079 121.464 467.418 143.862 464.266 155.644C462.284 163.051 462.27 163.349 463.927 162.713C464.645 162.438 471.507 160.805 479.177 159.084ZM467.148 117.73C470.693 128.169 471.539 147.827 468.76 155.138L467.766 157.75L476.944 155.477C481.992 154.227 487.811 152.913 489.875 152.556C492.933 152.028 493.989 151.201 495.577 148.088C498.648 142.069 502.375 138.233 506.405 136.946C511.531 135.308 512.284 134.389 510.298 132.195C508.286 129.972 508.065 121.473 509.738 110.692L510.853 103.501L504.729 97.8683C501.361 94.7703 497.198 91.6529 495.479 90.9407C492.63 89.7606 491.914 89.8923 487.411 92.4233C481.992 95.4693 478.868 95.5132 472.372 92.6347L468.622 90.9732V97.3276C468.622 100.823 467.962 105.875 467.155 108.556C465.868 112.832 465.867 113.957 467.148 117.73Z" fill="#C1E042"/>
<path d="M408.746 217.275C407.698 208.059 407.742 205.559 409.056 200C410.804 192.602 411.062 184.022 409.681 179.206C409.009 176.865 409.15 174.576 410.17 171.213C411.98 165.249 412.109 153.364 410.372 152.659C409.405 152.267 409.434 151.934 410.5 151.188C412.09 150.076 411.174 148 409.094 148C408.171 148 407.913 147.406 408.346 146.275C408.883 144.878 408.47 144.974 406.174 146.781C404.015 148.478 403.018 148.744 401.992 147.892C400.981 147.053 400.526 147.114 400.163 148.137C399.898 148.887 399.217 150.768 398.651 152.318C397.711 154.886 397.797 155.079 399.621 154.5C402.112 153.71 402.211 155.519 400.058 162.5C397.678 170.217 397.929 179.142 400.649 183.544C402.616 186.726 402.76 187.643 401.79 190.802C401.18 192.791 401.05 194.662 401.501 194.959C402.748 195.781 403.6 204 402.439 204C401.246 204 402.009 209.347 404.787 220.471C407.103 229.746 407.482 230.54 408.91 229.112C409.66 228.362 409.612 224.88 408.746 217.275Z" fill="#42B4CA"/>
<path fill-rule="evenodd" clip-rule="evenodd" d="M450.432 285.702C454.027 281.876 456.766 272.418 457.297 262C457.564 256.775 458.482 250.287 459.338 247.581C460.549 243.755 460.746 240.367 460.226 232.325C459.797 225.677 459.936 221.281 460.618 220.008C462.922 215.702 463.433 208.728 462.096 199.83C460.803 191.221 461.116 180.431 462.688 179.459C463.117 179.194 465.082 179.929 467.054 181.093C469.679 182.641 471.777 183.091 474.881 182.772C477.959 182.455 481.089 183.113 486.297 185.171C496.357 189.147 499.398 187.824 501.034 178.758C501.579 175.737 502.231 174.907 504.416 174.45C519.128 171.374 524.397 169.053 529.686 163.315C535.223 157.308 538.274 149.994 541.708 134.5C546.269 113.918 545.333 103.774 538.258 97.1274L535.911 94.9229L537.904 90.8937C541.661 83.3013 537.84 77.2733 523.816 68.6662C519.797 66.2 516.512 63.8704 516.516 63.4893C516.519 63.1082 517.973 62.0546 519.747 61.1481C523.653 59.1519 525.521 56.4986 524.052 55.0304C523.489 54.4669 518.324 53.718 512.575 53.3663C500.139 52.6055 493.091 53.8556 486.653 57.9641C484.161 59.5542 479.197 61.967 475.622 63.3258C472.047 64.6846 468.334 66.1153 467.372 66.5051C465.847 67.1229 465.622 66.5836 465.622 62.307C465.622 54.0608 462.702 53.0548 454.323 58.4144C447.951 62.4904 446.929 62.7378 443.446 61.0461C440.023 59.3835 436.079 60.3727 434.102 63.3894C431.578 67.2417 431.137 75.0239 433.106 80.9531C434.711 85.7856 434.722 86.5831 433.253 91.8339C432.296 95.2557 431.603 102.055 431.502 109C431.411 115.325 431.288 123.976 431.229 128.224C431.135 134.98 431.404 136.229 433.37 138.194C435.341 140.163 435.988 140.3 438.62 139.307L441.622 138.174V148.659V159.145L436.122 169.632C431.599 178.256 430.622 181.002 430.622 185.091C430.622 190.61 432.098 192.015 436.019 190.229C438.276 189.201 438.288 189.238 438.034 196.347C437.894 200.281 437.305 205.525 436.725 208C435.177 214.61 435.395 220.574 437.34 224.782C438.633 227.58 439.089 231.469 439.182 240.5C439.421 263.725 440.966 282.35 442.896 285.296C445.065 288.605 447.577 288.741 450.432 285.702ZM443.323 239C443.693 265.627 444.204 278.48 444.984 280.75C447.447 287.919 452.622 275.232 452.622 262.025C452.622 257.014 453.331 252.04 454.622 248C456.741 241.368 457.091 234.38 455.672 227.027C454.982 223.453 455.175 221.836 456.632 218.98C459.52 213.32 459.874 209.055 458.235 199.668C456.997 192.572 456.913 189.301 457.797 182.454C459.051 172.738 459.377 172.53 467.001 176.589C470.676 178.546 472.683 179.024 475.22 178.548C477.619 178.097 480.386 178.642 484.927 180.459C488.421 181.857 492.24 183 493.415 183C496.171 183 497.766 179.969 497.007 176.174C496.257 172.424 497.771 171.512 507.981 169.558C525.376 166.23 532.381 158.47 536.678 137.765C537.735 132.669 539.045 126.7 539.587 124.5C541.455 116.928 540.87 109.099 538.08 104.338C536.682 101.952 535.219 99.985 534.83 99.9667C534.44 99.9484 533.081 99.066 531.809 98.0057L529.497 96.078L532.059 92.3069C535.625 87.0589 535.418 83.1413 531.372 79.3341C526.985 75.2057 516.496 68.2743 510.872 65.7863L506.282 63.7559L510.202 61.3831C512.358 60.078 514.883 59.0081 515.813 59.0051C516.743 59.0023 517.818 58.4923 518.201 57.8718C518.71 57.0491 515.679 56.8652 507.01 57.1925C497.365 57.5566 494.333 58.0498 490.94 59.8063C488.64 60.9971 486.483 62.4161 486.147 62.9597C485.811 63.5033 483.418 64.5882 480.829 65.3705C478.24 66.1529 473.197 68.1892 469.622 69.8957C466.047 71.6022 462.52 72.9988 461.784 72.9992C460.469 73 460.572 70.5503 462.255 61.75C462.552 60.1953 462.335 59 461.755 59C460.297 59 448.558 65.8831 445.872 68.313C444.199 69.8263 443.614 69.9831 443.59 68.9243C443.573 68.1409 442.869 66.6 442.027 65.5C440.516 63.5274 440.462 63.5385 438.059 66.3057C434.953 69.8819 434.715 76.5772 437.565 80.2001C439.486 82.6422 439.486 82.7527 437.582 90.0849C435.257 99.0356 435.094 105.802 437.133 108.712C437.974 109.913 438.235 111.121 437.722 111.438C436.32 112.305 434.325 125.749 434.93 130.258C435.69 135.925 436.695 136.513 441.463 134.081C443.707 132.936 445.673 131.999 445.832 131.999C445.991 131.998 445.884 135.936 445.592 140.749C445.301 145.562 445.42 151.559 445.856 154.076C446.606 158.403 446.342 159.217 441.014 169.02C437.915 174.723 435.143 181.152 434.854 183.308C434.35 187.067 434.427 187.198 436.725 186.499C438.043 186.098 440.185 184.809 441.485 183.635L443.849 181.5L443.206 186C439.986 208.538 439.431 221.625 441.622 223.332C442.815 224.261 443.163 227.471 443.323 239Z" fill="#C1E042"/>
<path d="M413.622 115.5C413.622 114.675 413.186 114 412.653 114C412.121 114 411.944 114.675 412.26 115.5C412.577 116.325 413.013 117 413.229 117C413.445 117 413.622 116.325 413.622 115.5Z" fill="black"/>
<path d="M398.622 109.941C398.622 109.423 398.172 109 397.622 109C397.072 109 396.622 109.702 396.622 110.559C396.622 111.416 397.072 111.84 397.622 111.5C398.172 111.16 398.622 110.458 398.622 109.941Z" fill="#42B4CA"/>
<path d="M401.662 114.812C405.401 112.048 405.412 111.024 401.7 111.29C399.345 111.459 398.7 112.033 398.374 114.25C397.885 117.562 397.932 117.57 401.662 114.812Z" fill="#42B4CA"/>
<path d="M404.135 118.25C403.846 116.737 403.892 116.113 404.237 116.863C404.766 118.014 405.014 118.014 405.83 116.863C406.534 115.869 406.662 116.109 406.302 117.75C405.9 119.584 406.243 120 408.157 120C411.908 120 412.141 117.991 408.756 114.828C407.032 113.217 405.622 112.383 405.622 112.974C405.622 113.566 404.497 114.477 403.122 115C399.616 116.333 399.76 121 403.308 121C404.244 121 404.498 120.153 404.135 118.25Z" fill="#42B4CA"/>
<path d="M412.919 110.974C413.717 107.921 409.158 103 405.533 103C401.957 103 398.581 106.127 399.278 108.793C399.713 110.456 400.128 110.574 402.175 109.617C403.488 109.003 404.749 107.825 404.977 107C405.204 106.175 405.442 106.591 405.506 107.924L405.622 110.349L408.122 108C410.934 105.358 411.549 106.318 408.912 109.232C407.436 110.863 407.402 111.249 408.662 112.046C410.973 113.508 412.346 113.162 412.919 110.974Z" fill="#42B4CA"/>
<path d="M411.122 102C410.782 101.45 410.054 101 409.504 101C408.954 101 408.782 101.45 409.122 102C409.462 102.55 410.19 103 410.74 103C411.29 103 411.462 102.55 411.122 102Z" fill="#42B4CA"/>
<path d="M415.217 104.845C415.659 104.13 415.492 103.962 414.776 104.404C414.141 104.797 413.622 104.566 413.622 103.892C413.622 103.218 413.352 102.937 413.022 103.267C412.45 103.839 413.32 106 414.122 106C414.332 106 414.825 105.48 415.217 104.845Z" fill="#42B4CA"/>
<path fill-rule="evenodd" clip-rule="evenodd" d="M413.12 126.176C416.361 125.601 417.452 124.806 418.875 121.983C419.964 119.825 420.476 117.074 420.222 114.75C419.997 112.688 420.219 110.749 420.717 110.441C421.758 109.798 421.895 105.616 421.02 101.239C420.295 97.616 417.872 96.3539 409.914 95.4535C405.19 94.9191 403.783 95.101 402.719 96.3836C401.991 97.2605 400.963 97.7108 400.435 97.3842C398.772 96.3566 394.748 101.098 393.213 105.894C392.402 108.427 391.6 113.2 391.43 116.5C391.162 121.713 391.357 122.501 392.914 122.509C393.899 122.514 395.037 123.054 395.442 123.709C397.237 126.613 404.745 127.661 413.12 126.176ZM396.688 106.226C395.312 111.962 396.178 117.517 399.097 121.669C400.249 123.308 401.539 123.797 404.372 123.669C406.434 123.576 408.425 123.079 408.796 122.564C409.19 122.017 410.201 122.224 411.233 123.064C412.813 124.351 412.925 124.309 412.306 122.66C411.401 120.248 412.417 118.585 413.996 119.895C414.893 120.641 415.248 119.603 415.416 115.735C415.539 112.901 416.086 110.136 416.631 109.591C417.924 108.298 417.917 103 416.622 103C416.072 103 415.622 102.339 415.622 101.531C415.622 100.673 415.031 100.289 414.2 100.608C413.418 100.908 411.806 100.634 410.618 99.998C408.836 99.044 408.196 99.1616 406.958 100.671C405.594 102.335 405.508 102.342 406.009 100.75C406.772 98.3223 404.721 98.5579 401.884 101.224C400.103 102.897 399.324 103.135 398.738 102.187C398.251 101.4 397.482 102.915 396.688 106.226ZM393.622 117.633C393.622 118.202 393.922 118.967 394.289 119.333C394.655 119.7 395.188 119.767 395.472 119.483C395.756 119.199 395.456 118.434 394.805 117.783C394.088 117.066 393.622 117.007 393.622 117.633Z" fill="#C1E042"/>
<path fill-rule="evenodd" clip-rule="evenodd" d="M413.668 233.25C415.725 230.667 415.813 229.891 415.103 220.5C414.082 206.982 414.135 205.693 416.076 196.567C417.467 190.029 417.57 187.52 416.66 182.296C415.84 177.587 415.853 174.871 416.712 171.729C417.347 169.403 417.996 163.45 418.153 158.5C418.31 153.55 418.764 147.587 419.162 145.25L419.885 141H416.454C414.566 141 412.52 140.499 411.908 139.886C411.088 139.066 409.38 139.103 405.458 140.023C397.407 141.912 393.695 143.809 393.187 146.293C392.111 151.552 391.594 162.865 392.407 163.367C392.896 163.669 393.09 167.476 392.838 171.827C392.54 176.982 392.848 181.089 393.723 183.619C394.524 185.934 394.934 190.425 394.74 194.75C394.525 199.565 394.786 202 395.519 202C396.167 202 396.625 203.958 396.629 206.75C396.636 211.802 399.869 226.673 401.751 230.318C405.061 236.723 409.943 237.925 413.668 233.25ZM400.525 205.526C400.535 212.999 403.416 225.511 406.055 229.538C406.942 230.892 408.324 232 409.126 232C411.358 232 411.964 227.683 411.066 218.162C409.995 206.808 410.065 204.979 411.933 195.439C413.265 188.634 413.316 186.428 412.257 181.29C411.381 177.04 411.308 174.493 412.015 172.851C412.572 171.558 413.294 165.325 413.619 159C413.945 152.675 414.613 146.6 415.104 145.5C415.895 143.727 415.808 143.653 414.337 144.849C412.931 145.992 412.433 145.954 411.078 144.599C411.04 144.561 411.003 144.523 410.966 144.486L410.877 144.396C410.802 144.32 410.732 144.248 410.665 144.179C410.161 143.663 409.85 143.344 409.473 143.208C408.863 142.989 408.08 143.251 406.032 143.935L405.843 143.998L405.52 144.106C405.353 144.161 405.179 144.219 404.998 144.279C402.866 144.982 400.46 145.545 399.651 145.529C398.843 145.513 397.658 146.549 397.018 147.832C395.535 150.808 396.055 159.611 397.691 159.207C398.482 159.012 398.657 159.678 398.216 161.207C395.435 170.846 395.67 180.374 398.797 184.84C400.002 186.56 400.086 187.922 399.243 192.042C398.474 195.793 398.505 197.31 399.359 197.838C400.055 198.268 400.52 201.333 400.525 205.526Z" fill="#C1E042"/>
<path d="M401.449 266.179C401.63 264.913 400.41 261.093 398.739 257.689C393.063 246.124 386.622 231.379 386.617 229.937C386.614 229.146 385.503 226.7 384.148 224.5C382.793 222.3 381.67 219.68 381.653 218.678C381.61 216.13 377.053 208.436 372.054 202.468C369.736 199.7 366.508 194.525 364.882 190.968C361.511 183.597 359.839 181.852 353.872 179.475C349.111 177.58 348.548 175.956 351.872 173.708C356.477 170.594 364.564 162.034 366.516 158.208C367.626 156.032 369.954 153.353 371.689 152.254C375.856 149.616 387.317 135.453 388.716 131.214C389.963 127.435 389.22 121.741 387.268 120.121C384.875 118.135 377.351 121.183 371.622 126.46C369.697 128.234 365.425 131.171 362.129 132.988C358.833 134.805 351.858 139.287 346.629 142.948L337.122 149.605L337.47 140.258C337.761 132.442 337.462 130.035 335.648 125.564C333.515 120.308 333.506 120.083 335.161 112.358C336.521 106.011 336.626 103.693 335.709 100.304C334.392 95.4357 330.592 92 326.526 92C323.982 92 323.542 92.5258 322.127 97.25C321.262 100.137 319.837 106.998 318.959 112.496C317.775 119.917 316.879 122.832 315.485 123.809C313.743 125.028 313.636 126.358 314.017 142C314.243 151.282 314.693 159.306 315.018 159.832C315.342 160.357 314.543 161.054 313.242 161.381C311.857 161.728 310.348 163.246 309.606 165.039C308.533 167.629 308.611 169.011 310.113 173.97C312.034 180.316 314.124 181.834 317.987 179.687C319.161 179.034 320.288 178.409 320.491 178.298C321.308 177.849 317.662 175 316.271 175C314.497 175 312.296 169.013 313.202 166.653C313.624 165.551 315.004 165 317.336 165C320.068 165 320.707 164.664 320.248 163.469C318.705 159.447 317.466 144.225 318.405 140.824C318.999 138.674 319.058 135.483 318.553 132.867C318.089 130.465 317.689 128.215 317.665 127.867C317.642 127.518 318.522 126.998 319.622 126.71C320.948 126.364 321.622 125.346 321.622 123.693C321.622 119.659 325.589 97.6326 326.475 96.7464C327.853 95.3688 330.378 96.9979 331.659 100.091C332.91 103.11 332.682 106.301 330.516 116.081C329.376 121.229 329.453 122.02 331.509 126.267C333.387 130.145 333.719 132.422 333.618 140.686C333.552 146.084 333.526 152.222 333.56 154.327L333.622 158.155L338.872 153.723C347.757 146.223 358.157 139.101 364.279 136.324C367.493 134.867 372.666 131.337 375.776 128.479C378.885 125.622 382.373 123.037 383.526 122.735C385.409 122.243 385.618 122.609 385.586 126.344C385.567 128.63 385.004 131.44 384.336 132.589C381.807 136.94 370.198 148.933 367.389 150.096C365.309 150.958 363.791 152.821 362.153 156.525C359.806 161.832 351.265 170.065 344.448 173.59L341.385 175.174L345.207 179.087C347.308 181.239 349.815 183 350.778 183C355.22 183 357.972 185.519 361.152 192.497C362.913 196.361 366.327 201.853 368.738 204.701C371.149 207.549 374.301 212.269 375.742 215.19C380.874 225.59 383.622 232.069 383.624 233.772C383.625 234.722 385.017 238.139 386.717 241.364C388.417 244.589 390.675 249.749 391.736 252.831C392.796 255.913 394.859 259.682 396.32 261.207C401.218 266.32 398.035 265.05 391.253 259.185C379.958 249.418 370.81 238.297 368.842 231.94C366.871 225.569 363.846 220.811 363 222.75C362.02 224.999 360.894 224.066 360.32 220.528C360.01 218.619 358.437 215.131 356.824 212.778C355.211 210.425 352.718 206.176 351.283 203.337C349.129 199.069 348.312 198.268 346.579 198.721C345.058 199.119 343.388 198.203 340.497 195.385L336.511 191.5L336.722 197.5C336.853 201.204 336.257 205.399 335.165 208.464C333.888 212.05 333.57 214.898 334.018 218.718C334.486 222.692 334.327 223.943 333.381 223.753C332.458 223.568 331.976 226.359 331.574 234.215C331.272 240.108 330.771 245.184 330.46 245.495C330.149 245.806 328.872 243.685 327.622 240.78C324.551 233.646 320.497 206.532 320.288 191.727C320.149 181.859 319.879 179.999 318.622 180.239C317.404 180.471 317.069 182.843 316.84 192.869C316.242 219.076 323.662 250 330.548 250C333.299 250 333.628 249.129 334.794 238.736C335.364 233.656 336.393 228.375 337.08 227C337.872 225.416 338.16 222.068 337.866 217.859C337.463 212.077 337.675 210.947 339.512 209.109C340.673 207.949 341.622 206.091 341.622 204.981C341.622 203.292 342.071 203.065 344.372 203.594L344.538 203.633C345.31 203.809 345.871 203.938 346.37 204.188C347.697 204.851 348.596 206.37 351.88 211.921L352.147 212.371C354.058 215.6 355.622 219.102 355.622 220.153C355.622 221.204 356.279 223.638 357.083 225.561C358.303 228.481 358.926 228.962 360.863 228.476C362.849 227.977 363.371 228.44 364.499 231.697C366.724 238.118 372.517 246.019 382.028 255.604C394.803 268.48 400.667 271.673 401.449 266.179Z" fill="#C1E042"/>
<path d="M386.662 245.582C384.383 240.981 381.642 236.423 380.57 235.453C379.499 234.483 378.622 233.24 378.622 232.69C378.622 232.14 379.582 232.547 380.755 233.595C382.878 235.492 382.884 235.489 382.129 233C381.711 231.625 380.108 228.767 378.566 226.649C377.024 224.53 375.979 222.233 376.244 221.543C376.864 219.927 373.393 213.959 367.784 207C365.347 203.975 361.881 198.277 360.083 194.337C356.769 187.074 354.107 184.493 351.115 185.641C349.979 186.077 347.847 184.706 344.293 181.255C341.449 178.495 338.447 176.029 337.622 175.775C336.721 175.499 338.346 174.259 341.693 172.669C348.869 169.262 359.912 158.702 361.217 154C361.912 151.499 363.239 149.929 365.87 148.5C372.34 144.984 384.622 129.941 384.622 125.532C384.622 123.633 380.807 125.718 376.816 129.798C374.126 132.547 369.224 135.997 365.334 137.879C358.217 141.322 341.681 153.182 335.501 159.276L331.879 162.846L331.227 157.298C330.868 154.246 330.874 147.124 331.24 141.471C331.848 132.056 331.724 130.901 329.763 127.728C327.178 123.546 327.14 122.106 329.327 111.48C330.734 104.644 330.813 102.715 329.779 100.446C329.083 98.9186 328.168 98.0969 327.72 98.5978C326.69 99.7496 323.622 118.655 323.622 123.848C323.622 126.565 323.117 127.98 321.993 128.411C320.724 128.898 320.498 129.863 320.973 132.768C321.308 134.821 321.8 137.85 322.066 139.5C322.332 141.15 322.307 141.707 322.01 140.738C321.19 138.058 319.622 139.712 319.622 143.257C319.622 148.332 321.745 163.349 322.731 165.25C323.529 166.787 323.111 167 319.297 167C316.909 167 314.682 167.274 314.347 167.608C313.308 168.647 316.008 172 317.884 172C318.863 172 320.177 173.125 320.804 174.5C321.43 175.875 322.546 177 323.282 177C324.927 177 324.951 177.522 323.44 180.316C321.896 183.17 322.222 199.561 324.069 211.969C324.85 217.211 325.76 223.975 326.093 227C326.425 230.025 327.243 234.075 327.91 236C329.092 239.413 329.141 239.288 329.886 231C332.007 207.408 332.827 201.595 334.192 200.5C335.131 199.746 335.212 197.922 334.522 193.091C334.018 189.566 333.816 186.472 334.073 186.216C334.33 185.959 336.886 188.316 339.753 191.453C344.514 196.662 345.246 197.106 348.179 196.555C351.217 195.985 351.426 196.142 352.049 199.461C352.411 201.391 354.935 206.239 357.657 210.235C360.38 214.231 362.611 218.111 362.615 218.858C362.62 219.819 363.378 220.027 365.202 219.569C367.431 219.01 367.697 219.187 367.161 220.877C366.82 221.952 366.931 223.073 367.408 223.368C367.886 223.663 369.12 226.69 370.151 230.095C371.312 233.932 373.282 237.618 375.333 239.793C377.153 241.722 381.204 246.22 384.336 249.787C387.468 253.354 390.205 255.75 390.419 255.11C390.632 254.47 388.942 250.182 386.662 245.582Z" fill="#42B4CA"/>
<path fill-rule="evenodd" clip-rule="evenodd" d="M278.622 140.5C278.522 140.5 278.448 140.51 278.395 140.526C278.139 140.601 278.354 140.794 278.395 140.526C278.41 140.426 278.4 140.26 278.332 140C277.632 137.321 274.726 137.472 270.766 140.393C268.982 141.71 266.744 142.583 265.792 142.334C263.012 141.607 258.622 143.741 258.622 145.82C258.622 148.178 255.955 150.533 252.301 151.403C250.108 151.924 248.969 153.236 247.193 157.287C242.593 167.776 241.554 173.468 244.839 170.183C246.785 168.237 248.07 168.847 246.253 170.855C245.288 171.922 244.848 173.425 245.218 174.39C245.592 175.366 244.584 178.674 242.812 182.285C238.197 191.687 237.135 196.899 238.951 201.244C239.795 203.265 241.665 205.397 243.28 206.178C245.698 207.349 246.081 208.071 245.847 211.027C245.454 215.998 248.657 220.907 251.89 220.289C253.711 219.941 254.91 220.547 256.58 222.661C257.814 224.222 259.791 225.519 260.973 225.542C262.155 225.565 265.065 225.948 267.441 226.392C270.744 227.009 271.621 227.561 271.169 228.738C270.183 231.307 283.458 229.852 285.541 227.162C286.411 226.04 288.472 224.801 290.122 224.409C292.737 223.787 295.047 222.328 300.422 217.898C301.463 217.041 301.474 216.527 300.478 215.327C299.02 213.57 295.005 213.924 286.356 216.572C281.129 218.173 280.474 218.191 279.356 216.767C278.452 215.616 275.736 215.081 269.196 214.768C260.525 214.352 260.19 214.245 257.498 211.021C253.665 206.43 251.497 201.726 252.673 200.55C254.338 198.883 253.699 195.393 251 191.415L248.377 187.551L252.203 184.243L256.03 180.936L254.311 176.298C252.628 171.757 252.636 171.614 254.721 169.394C255.893 168.148 259.949 165.499 263.736 163.509L270.622 159.891V155.445C270.622 150.238 271.648 149.921 278.481 153.022C284.417 155.715 287.42 155.514 292.871 152.057C296.901 149.501 300.617 144.825 300.624 142.3C300.625 141.86 296.575 141.644 291.624 141.821C286.413 142.007 281.438 139.634 280.305 138.576C281.844 140.925 280.336 140.5 278.622 140.5ZM270.351 222.396C270.019 222.064 269.156 222.028 268.434 222.317C267.637 222.636 267.874 222.873 269.039 222.921C270.093 222.964 270.683 222.728 270.351 222.396ZM264.872 221.338C264.184 221.06 263.059 221.06 262.372 221.338C261.684 221.615 262.247 221.842 263.622 221.842C264.997 221.842 265.559 221.615 264.872 221.338Z" fill="#42B4CA"/>
<path fill-rule="evenodd" clip-rule="evenodd" d="M280.065 138.223C280.065 138.308 280.148 138.43 280.305 138.576C280.232 138.465 280.152 138.347 280.065 138.223Z" fill="black"/>
<path fill-rule="evenodd" clip-rule="evenodd" d="M283.775 235.515C285.785 235.202 287.683 234.283 287.994 233.473C288.305 232.663 289.392 232 290.411 232C291.429 232 294.071 230.452 296.282 228.559C298.492 226.667 301.494 224.819 302.952 224.453C304.968 223.947 305.852 222.858 306.649 219.898C307.778 215.705 307.172 213.713 303.852 210.708C300.297 207.491 296.086 206.947 289.9 208.906C284.908 210.487 283.733 210.537 279.748 209.338C276.955 208.497 273.421 208.223 270.45 208.617C263.986 209.475 260.622 207.377 260.622 202.488C260.622 200.581 259.722 196.654 258.622 193.761C258.441 193.284 258.274 192.846 258.12 192.444C256.95 189.38 256.58 188.412 256.878 188.115C257.016 187.978 257.296 187.985 257.707 187.994C257.823 187.997 257.95 188 258.087 188C260.586 188 261.905 184.066 261.256 178.544C260.486 171.989 262.039 169.636 268.152 168.097C272.026 167.121 273.011 166.354 274.434 163.209L276.122 159.478L280.508 160.41C289.09 162.233 299.486 157.502 304.065 149.688C306.77 145.071 308.814 133 306.89 133C306.331 133 303.96 133.675 301.622 134.5C295.58 136.632 284.823 136.492 282.346 134.25C281.071 133.096 278.781 132.5 275.622 132.5C272.463 132.5 270.173 133.096 268.898 134.25C267.835 135.212 265.74 136 264.244 136C260.523 136 256.55 138.223 253.945 141.763C252.741 143.399 250.459 144.983 248.838 145.307C246.48 145.778 245.391 146.982 243.269 151.463C238.502 161.533 236.622 168.535 236.622 176.226C236.622 182.083 236.13 184.439 234.122 188.212C230.307 195.378 231.308 203.84 236.597 209.129C238.13 210.661 239.67 213.397 240.021 215.208C240.372 217.018 242.021 220.669 243.686 223.321C246.245 227.395 247.137 228.097 249.451 227.854C251.227 227.668 252.967 228.345 254.405 229.783C255.889 231.267 257.836 232 260.293 232C262.312 232 264.697 232.663 265.593 233.474C266.489 234.285 269 235.347 271.172 235.834C275.041 236.702 276.37 236.668 283.775 235.515ZM268.743 229.629C266.865 227.629 265.823 227.336 262.095 227.756C257.969 228.221 257.557 228.046 255.898 225.124C254.396 222.476 253.605 222.033 250.765 222.247C247.849 222.467 247.161 222.043 245.515 219.016C244.474 217.099 243.622 214.092 243.622 212.333C243.622 209.966 243.078 208.962 241.53 208.471C239.189 207.728 235.666 200.836 235.666 197C235.666 195.625 236.556 192.538 237.644 190.141C238.732 187.743 239.622 184.991 239.622 184.026C239.622 183.06 240.565 181.071 241.718 179.605C242.976 178.006 243.554 176.265 243.164 175.249C242.615 173.818 242.376 173.779 241.623 174.999C238.583 179.917 240.721 168.49 244.803 158C247.476 151.13 248.945 149.385 252.69 148.636C254.537 148.267 255.986 147.172 256.534 145.731C257.839 142.299 260.12 140.817 264.436 140.597C266.651 140.484 269.491 139.461 271.095 138.2C274.669 135.389 278.086 135.397 280.065 138.223C280.065 137.945 281.009 138.201 282.468 138.597C284.537 139.158 287.64 140 290.557 140C294.921 140 299.646 139.561 301.057 139.025C304.342 137.776 304.36 138.873 301.163 145.74C296.89 154.918 285.916 159.67 278.622 155.5C274.309 153.034 272.866 153.597 272.116 158.036C271.48 161.799 271.003 162.281 265.048 165.185C256.128 169.534 254.969 170.99 256.569 175.838C258.179 180.719 257.687 183.246 254.885 184.479C251.644 185.905 251.33 187.791 253.695 191.619C255.088 193.873 255.69 196.27 255.486 198.756C255.189 202.373 258.258 210.039 260.576 211.472C261.117 211.806 265.286 212.312 269.841 212.596C274.395 212.88 279.022 213.681 280.122 214.376C282.147 215.655 283.466 215.491 292.35 212.854C298.35 211.073 302.02 212.483 302.432 216.729C302.704 219.521 302.326 220.097 299.432 221.306C297.612 222.067 295.504 223.435 294.749 224.345C293.995 225.255 292.323 226 291.035 226C289.746 226 288.236 226.853 287.678 227.895C286.364 230.35 281.528 232 275.647 232C272.02 232 270.471 231.468 268.743 229.629Z" fill="#C1E042"/>
<path d="M215.519 229.668C216.126 226.186 216.622 222.162 216.622 220.727C216.622 219.292 217.072 217.84 217.622 217.5C219.158 216.551 218.844 193.304 217.224 187.965C216.038 184.06 216.052 182.824 217.326 179.057C218.139 176.652 218.61 173.068 218.374 171.092C218.137 169.116 218.393 165.925 218.941 164C219.936 160.506 220.038 156.083 219.143 155.188C218.883 154.928 217.984 155.284 217.146 155.98C216.307 156.677 215.622 156.796 215.622 156.245C215.622 155.695 216.297 154.685 217.122 154C219.525 152.006 218.885 151.325 214.872 151.605C214.444 151.635 214.038 151.662 213.651 151.688L213.623 151.69L213.621 151.69L213.608 151.691L213.604 151.692C209.427 151.975 207.578 152.1 206.739 153.086C206.072 153.869 206.043 155.195 205.992 157.575L205.984 157.935C205.98 158.112 205.976 158.295 205.971 158.484C205.824 164.337 205.853 164.407 207.3 161.646C209.581 157.292 209.673 158.87 207.586 166.518C205.021 175.916 205.057 183.971 207.686 189.126C209.492 192.666 209.617 193.794 208.686 198.136L208.621 198.442C207.787 202.325 207.505 203.641 207.904 203.897C208.108 204.028 208.491 203.881 209.07 203.658L209.159 203.624C210.464 203.123 210.672 204.13 210.535 210.267C210.36 218.117 212.567 236 213.711 236C214.099 236 214.913 233.151 215.519 229.668Z" fill="#42B4CA"/>
<path fill-rule="evenodd" clip-rule="evenodd" d="M215.567 244.029C217.895 242.783 220.337 236.661 221.222 229.849C221.604 226.907 222.263 224.271 222.687 223.992C223.11 223.713 223.904 216.588 224.45 208.159C225.291 195.194 225.209 192.145 223.919 188.359C222.717 184.83 222.62 182.998 223.462 179.692C224.819 174.362 225.81 165.571 226.133 156C226.272 151.875 226.552 147.878 226.754 147.119C227.013 146.146 225.348 145.371 221.125 144.5C216.205 143.485 214.431 143.509 211.249 144.632C209.116 145.384 206.372 146 205.151 146C201.127 146 199.932 148.784 199.25 159.75C198.899 165.387 198.958 170 199.38 170C199.803 170 200.143 174.162 200.136 179.25C200.127 185.652 200.598 189.424 201.666 191.5C202.76 193.624 202.983 195.522 202.431 198C201.559 201.913 202.308 208.688 203.709 209.554C204.211 209.864 204.622 212.679 204.622 215.809C204.622 222.25 207.033 235.994 208.744 239.303C209.955 241.646 212.662 245 213.343 245C213.569 245 214.57 244.563 215.567 244.029ZM208.344 211.775C207.897 215.741 210.264 231.925 212.217 238.25C212.809 240.168 214.169 240.543 215.096 239.042C216.213 237.235 219.318 221 218.547 221C218.122 221 218.474 219.6 219.327 217.889C220.459 215.619 220.726 213.116 220.311 208.639C219.999 205.262 220.202 200.658 220.762 198.407C221.564 195.181 221.446 193.514 220.201 190.535C218.414 186.259 218.166 181.72 219.575 179.087C220.1 178.107 220.765 171.949 221.053 165.403C221.341 158.856 221.883 152.417 222.257 151.094C222.724 149.442 222.587 148.904 221.82 149.377C221.206 149.757 219.829 149.522 218.761 148.855C217.219 147.892 215.52 147.951 210.497 149.143C204.514 150.563 204.137 150.827 203.475 154.062C203.091 155.942 203.166 157.95 203.642 158.524C204.133 159.115 204.106 160.202 203.58 161.034C202.16 163.279 202.446 165 204.239 165C205.455 165 205.683 165.558 205.16 167.25C204.777 168.488 204.221 172.914 203.924 177.087C203.479 183.337 203.742 185.482 205.414 189.263C207.028 192.912 207.263 194.637 206.557 197.677C205.333 202.952 205.392 203.628 207.246 205.481C208.463 206.698 208.738 208.276 208.344 211.775Z" fill="#C1E042"/>
<path fill-rule="evenodd" clip-rule="evenodd" d="M219.815 128.824C224.359 127.463 225.731 125.427 226.777 118.5C227.192 115.75 227.817 112.117 228.164 110.427C229.01 106.322 226.38 100 223.827 100C222.783 100 220.508 99.2909 218.77 98.4241C216.191 97.1376 214.973 97.0592 212.131 97.9971C210.216 98.6289 208.362 99.6111 208.011 100.18C207.596 100.85 207.091 100.759 206.573 99.921C205.925 98.8722 205.463 98.8866 204.125 99.9973C199.205 104.081 196.032 119.925 199.175 124.721C202.33 129.536 211.413 131.341 219.815 128.824ZM205.622 123.634C205.622 125.567 206.221 125.928 209.872 126.192C217.49 126.744 218.678 126.59 218.116 125.123C217.825 124.366 218.098 123.131 218.723 122.379C219.347 121.626 219.622 120.108 219.334 119.005C218.625 116.297 220.039 116.459 221.471 119.25C222.523 121.299 222.576 121.216 222.059 118.314C221.693 116.263 222.052 114.274 223.064 112.728C224.98 109.805 224.2 103.841 222.012 104.681C221.168 105.004 220.622 104.559 220.622 103.548C220.622 102.632 220.181 102.154 219.643 102.487C219.104 102.82 217.713 102.584 216.552 101.962C214.15 100.677 209.034 102.26 206.891 104.953C205.869 106.237 205.507 106.268 204.763 105.138C204.148 104.205 203.513 105.804 202.744 110.22C201.361 118.165 201.35 121.066 202.698 123C203.473 124.113 203.586 123.596 203.135 121C202.564 117.71 202.62 117.616 204.075 119.441C204.926 120.509 205.622 122.395 205.622 123.634Z" fill="#C1E042"/>
<path d="M222.622 109.5C222.622 108.125 222.109 107 221.482 107C220.855 107 219.843 106.37 219.232 105.601C217.846 103.855 213.055 102.274 214.056 103.893C214.432 104.502 215.352 105 216.099 105C216.847 105 218.432 106.575 219.622 108.5C222.195 112.663 222.622 112.805 222.622 109.5Z" fill="#42B4CA"/>
<path d="M211.965 114.453C211.549 113.367 210.958 113.285 209.436 114.099C206.35 115.751 206.235 114.484 209.29 112.482C211.183 111.241 212.139 111.052 212.41 111.864C213.79 116.003 219.622 116.677 219.622 112.698C219.622 109.258 215.743 106 211.648 106C207.541 106 205.622 107.433 205.622 110.5C205.622 111.655 205.15 113.072 204.574 113.648C203.844 114.378 203.878 115.468 204.688 117.247L205.851 119.798L209.18 117.833C211.252 116.611 212.304 115.334 211.965 114.453Z" fill="#42B4CA"/>
<path d="M215.761 122.428C218.685 120.916 218.735 120.782 217.057 118.928C214.395 115.987 212.278 116.416 213.006 119.75C213.604 122.482 213.597 122.486 212.034 120.312C210.453 118.113 207.622 118.174 207.622 120.407C207.622 122.007 209.702 124 211.372 124C212.114 124 214.089 123.293 215.761 122.428Z" fill="#42B4CA"/>
<path fill-rule="evenodd" clip-rule="evenodd" d="M231.984 299.817C230.423 296.893 226.626 292.025 223.544 289C217.435 283.002 215.622 280.26 215.622 277.016C215.622 273.119 212.661 269.117 205.626 263.503C201.029 259.835 198.441 257.004 198.051 255.216C196.797 249.461 195.303 247.127 188.92 240.956C185.292 237.448 181.495 232.707 180.484 230.421C178.425 225.766 177.246 224.578 173.622 223.504C170.333 222.53 167.894 220.337 164.956 215.712C163.632 213.628 161.404 211.402 160.005 210.765C158.606 210.127 156.615 207.947 155.581 205.919C152.915 200.694 138.203 191.312 125.122 186.495C123.663 185.957 125.354 185.264 131.372 183.932C140.717 181.863 148.162 178.437 154.373 173.348C160.149 168.615 161.027 166.756 159.57 162.342C158.533 159.201 158.628 158.549 160.379 156.799C162.271 154.907 162.512 154.892 165.585 156.481C167.358 157.398 168.91 158.002 169.034 157.824C169.159 157.646 169.905 154.628 170.691 151.118L172.122 144.737L174.872 148.606C177.268 151.979 177.622 152.183 177.622 150.198C177.622 148.944 178.579 146.625 179.748 145.044C181.401 142.807 181.715 141.427 181.159 138.834C179.686 131.967 180.143 129.309 183.443 125.551C187.112 121.372 187.691 115.969 185.024 110.811C183.832 108.506 183.597 106.357 184.098 102.348C184.963 95.4197 183.57 91.332 178.735 86.6103C174.584 82.5566 168.343 80.463 163.55 81.5159C158.973 82.5211 159.3 80.2732 164.143 77.4348C166.656 75.962 168.509 74.5539 168.261 74.3056C166.36 72.4043 146.17 63.8763 142.38 63.3735C139.763 63.0264 137.63 62.4628 137.639 62.1211C137.649 61.7795 139.105 60.4875 140.875 59.25L144.094 57H138.387C134.425 57 131.011 57.7639 127.216 59.5C121.118 62.289 118.893 62.5364 115.169 60.8395C113.256 59.9679 111.999 59.9626 110.122 60.8181C108.601 61.511 107.622 61.5738 107.622 60.9786C107.622 60.4404 108.072 60 108.622 60C109.172 60 109.622 59.5385 109.622 58.9743C109.622 57.6173 104.744 60.1465 96.1219 65.9738C87.3961 71.8713 82.3737 74.4523 76.6163 75.9976C74.1444 76.6611 70.3488 78.0586 68.1817 79.1031L67.899 79.2396C66.1993 80.0605 65.23 80.5286 64.4294 80.3269C63.3667 80.0591 62.6015 78.6108 60.8206 75.24L60.5975 74.8179C56.8792 67.7858 56.2795 68.8032 56.8955 81.099C57.2341 87.8577 57.0011 95.2896 56.3234 99.3511C55.2089 106.03 55.2523 106.332 58.0455 111.351C64.2188 122.444 68.6961 132.364 68.16 133.761C67.819 134.65 66.815 135.022 65.6098 134.707C63.8911 134.258 63.6249 134.682 63.6439 137.844C63.656 139.855 64.5194 143.38 65.5626 145.678C67.0273 148.904 67.8924 149.742 69.3605 149.358C73.1451 148.368 73.9184 151.213 73.7136 165.374C73.5489 176.759 73.8352 179.608 75.679 184.936C77.7522 190.927 77.7739 191.398 76.2295 196.902C73.9829 204.909 74.1151 209.658 76.6219 211C78.1614 211.824 78.6219 213.094 78.6219 216.515C78.6219 222.145 81.1092 228.434 84.1147 230.403C86.3133 231.844 86.4106 232.37 85.9293 240.213C85.6496 244.771 84.7806 251.08 83.9982 254.234C82.3101 261.037 83.0162 264.819 86.2007 266.03C89.7131 267.365 91.9486 272.603 92.0411 279.714C92.1103 285.037 92.3224 285.728 93.5205 284.53C95.6149 282.436 96.4073 274.951 95.3287 267.45C94.6796 262.935 94.7135 259.608 95.4337 257.142C96.0776 254.937 96.1787 251.815 95.6899 249.229C94.8103 244.574 95.5014 243.51 98.7358 244.536C100.708 245.162 100.792 244.944 100.153 240.851C99.779 238.458 97.9318 233.191 96.0476 229.146C92.2189 220.927 92.0031 218.894 94.1219 211C96.1381 203.488 95.992 196.389 93.6831 189.678C92.5098 186.268 92.1254 183.807 92.7095 183.446C94.0484 182.618 112.974 196.295 116.357 200.535C119.343 204.277 120.622 204.866 120.622 202.5C120.622 201.675 120.837 201 121.099 201C121.362 201 125.23 204.805 129.695 209.456C136.706 216.759 138.175 217.843 140.467 217.404C142.533 217.008 144.224 217.814 148.09 221.038C153.055 225.178 153.059 225.179 154.75 223.09C155.681 221.941 156.88 221 157.415 221C157.95 221 159.902 225.086 161.755 230.08C164.443 237.331 165.877 239.765 168.872 242.164C170.934 243.816 172.622 245.772 172.622 246.511C172.622 247.25 174.309 249.246 176.372 250.947C179.991 253.931 180.154 253.968 181.025 252.019C182.135 249.536 182.346 249.534 186.331 251.964C188.943 253.557 189.938 255.231 191.679 260.961C193.307 266.322 194.251 268 195.639 268C196.942 268 197.944 269.452 199.155 273.101C200.516 277.197 201.763 278.821 205.486 281.346C208.036 283.075 212.147 286.559 214.622 289.087C217.097 291.616 221.147 295.061 223.622 296.743C226.097 298.424 229.439 301.191 231.049 302.89C232.659 304.589 234.166 305.789 234.398 305.557C234.63 305.325 233.544 302.742 231.984 299.817ZM211.344 277C210.777 277 211.129 277.903 212.127 279.006C213.126 280.109 214.16 280.795 214.425 280.53C215.097 279.858 212.603 277 211.344 277ZM87.598 157.168C87.5849 161.2 87.1823 166.188 86.7034 168.25C85.6657 172.719 86.388 172.911 91.4071 169.5C93.7449 167.911 96.4792 167 98.9071 167C101.335 167 104.069 167.911 106.407 169.5C112.409 173.578 113.294 173.023 115.09 164.058C116.518 156.93 118.748 156.56 119.97 163.25C120.448 165.863 121.303 168 121.872 168C123.577 168 135.865 160.007 139.622 156.453C141.547 154.633 145.133 152.098 147.591 150.822C152.737 148.148 156.58 142.317 156.605 137.143C156.618 134.559 156.968 133.926 158.122 134.393L161.122 135.607C161.947 135.941 162.622 135.745 162.622 135.172C162.622 134.598 161.04 133.558 159.107 132.859C157.174 132.16 155.728 131.343 155.894 131.044C160.892 122.019 163.622 114.93 163.622 110.978C163.622 108.46 163.082 105.86 162.422 105.2C161.698 104.476 158.19 104 153.579 104H145.937L143.501 96.75L141.065 89.5H133.842C129.869 89.5 126.619 89.3836 126.62 89.2413C126.621 89.0991 127.972 87.1191 129.622 84.8413C131.272 82.5635 132.622 80.324 132.622 79.8645C132.622 78.905 124.915 81.8044 117.564 85.5291C114.805 86.9275 112.165 87.8355 111.698 87.5469C111.231 87.2582 110.547 85.4132 110.178 83.4468C109.782 81.3338 109.019 80.0333 108.315 80.267C107.659 80.4846 104.596 83.7661 101.508 87.5593C95.4525 94.9979 90.6453 97.9296 84.4309 97.9738C82.4009 97.9882 80.5075 98.3761 80.2233 98.8359C79.9392 99.2956 80.9799 102.8 82.5361 106.624C85.1886 113.142 87.6219 122.215 87.6219 125.587C87.6219 126.595 86.7891 126.983 85.0448 126.788C82.6337 126.519 82.4418 126.814 82.0654 131.379C81.7502 135.202 82.3084 137.729 84.6425 143.047C87.0739 148.587 87.6175 151.184 87.598 157.168Z" fill="#42B4CA"/>
<path fill-rule="evenodd" clip-rule="evenodd" d="M113.105 164.262C114.068 157.841 115.284 155.811 117.94 156.189C119.522 156.415 120.493 157.672 121.471 160.763L122.82 165.026L128.768 161.763C132.039 159.968 136.832 156.655 139.419 154.399C142.005 152.144 145.58 149.547 147.362 148.628C149.145 147.71 151.257 145.955 152.057 144.729C154.001 141.747 155.658 134.14 154.517 133.435C152.961 132.474 153.533 130.175 156.549 125.265C160.004 119.639 162.107 112.068 161.208 108.488C160.59 106.025 160.328 105.946 153.697 106.215C145.64 106.543 143.222 105.072 142.147 99.1846C140.857 92.1223 139.53 91.1189 131.047 90.7921L123.464 90.5L126.013 86.75C127.415 84.6875 128.339 83 128.067 83C127.795 83 124.444 84.575 120.622 86.5C111.894 90.8953 109.769 90.9865 108.972 87C108.642 85.35 108.05 84 107.657 84C107.264 84 104.82 86.7334 102.226 90.0742C97.3734 96.3227 91.6523 99.9345 86.5386 99.978C85.1177 99.9901 83.6983 100.257 83.3843 100.571C83.0703 100.885 84.1603 104.822 85.8065 109.321C87.8337 114.861 88.9215 119.92 89.1773 125C89.385 129.125 89.3071 131.687 89.0041 130.693C88.1582 127.918 85.3014 129.135 84.2768 132.708C83.5111 135.378 83.8301 136.771 86.2217 141.201C88.8582 146.084 89.0842 147.343 89.1023 157.247C89.1131 163.158 89.3469 167.979 89.6219 167.961C89.8969 167.944 91.2469 167.286 92.6219 166.5C96.491 164.288 102.567 164.674 107.104 167.421C109.294 168.746 111.38 169.65 111.739 169.428C112.098 169.206 112.712 166.882 113.105 164.262ZM98.6256 161.161C101.544 160.954 104.513 161.403 106.254 162.315L109.105 163.809L110.282 159.823C111.835 154.564 114.291 152 117.777 152C120.83 152 124.622 155.047 124.622 157.5V157.541C124.622 158.185 124.622 158.608 124.828 158.771C125.222 159.083 126.372 158.44 129.724 156.567L129.836 156.504C133.608 154.396 139.584 149.765 147.872 142.528C149.161 141.402 149.622 139.476 149.622 135.211C149.622 131.239 150.284 128.18 151.733 125.461C152.894 123.283 154.439 120.375 155.167 119C155.895 117.625 156.633 115.15 156.806 113.5C157.112 110.591 157.006 110.509 153.297 110.803C148.867 111.153 143.327 109.554 141.549 107.412C140.871 106.595 139.553 103.581 138.62 100.714L136.923 95.5L128.668 95.2078C121.387 94.9502 120.351 94.6797 119.89 92.917C119.602 91.8176 119.087 91.0728 118.745 91.2618C112.943 94.4633 110.351 95.0527 108.219 93.6553C106.141 92.2942 105.756 92.4674 101.981 96.4631C99.5936 98.9897 96.1605 101.33 93.5395 102.218C93.372 102.275 93.2102 102.33 93.054 102.382C91.4474 102.922 90.4382 103.261 89.9336 103.963C89.0814 105.148 89.6693 107.369 91.2502 113.341L91.2506 113.343C91.3414 113.686 91.4356 114.042 91.5329 114.41C92.7361 118.966 93.6219 125.407 93.6219 129.601C93.6219 136.831 92.5356 139.314 90.3348 137.113C87.7929 134.571 87.7713 136.323 90.2852 141.13C92.3008 144.985 93.0771 148.155 93.4077 153.88L93.8477 161.5L98.6256 161.161Z" fill="#C1E042"/>
<path fill-rule="evenodd" clip-rule="evenodd" d="M106.229 318.429C107.363 313.911 105.736 306.724 101.72 298.515C97.9076 290.721 97.853 290.457 99.4418 287.515C100.679 285.224 101.12 281.261 101.28 271.009C101.55 253.677 101.985 251.377 105.148 250.583C106.598 250.219 107.616 249.245 107.607 248.231C107.576 244.6 104.476 233.51 101.48 226.315C98.574 219.333 98.4462 218.533 99.6187 214.659C100.311 212.372 101.158 207.228 101.5 203.228L102.122 195.957L107.276 200.472C110.111 202.956 113.711 207.015 115.276 209.492C117.834 213.541 121.622 215.635 121.622 213C121.622 210.438 124.933 212.519 129.179 217.75C134.802 224.677 135.904 225.378 140.099 224.698C142.873 224.247 144.072 224.801 148.265 228.469C150.968 230.834 154.008 232.933 155.019 233.134C156.125 233.354 157.51 235.256 158.491 237.9C160.581 243.538 172.735 257.386 179.493 261.83C181.68 263.268 181.971 263.243 183.233 261.517L183.305 261.419C183.893 260.614 184.255 260.119 184.595 260.133C185.14 260.155 185.63 261.48 186.905 264.922L187.003 265.186C187.957 267.763 189.95 271.432 191.43 273.34C192.911 275.248 194.878 278.184 195.803 279.865C196.727 281.545 199.379 284.176 201.697 285.71C204.015 287.245 207.984 290.587 210.517 293.138C213.049 295.688 217.597 299.578 220.622 301.782C223.647 303.986 228.128 307.862 230.58 310.395C235.163 315.129 238.899 316.326 240.015 313.418C240.93 311.033 240.736 305.95 239.569 301.749C238.369 297.428 227.886 283.058 224.146 280.608C222.602 279.596 221.622 278.017 221.622 276.542C221.622 275.216 221.222 273.079 220.733 271.793C219.332 268.108 212.704 260.694 208.85 258.5C206.157 256.967 204.976 255.364 203.796 251.635C202.661 248.046 200.074 244.401 193.939 237.744C189.365 232.78 185.622 228.142 185.622 227.436C185.622 225.279 180.588 220.023 176.549 217.963C174.447 216.89 171.402 214.087 169.782 211.733C168.163 209.379 165.699 206.844 164.306 206.099C162.914 205.353 161.516 203.716 161.201 202.459C160.621 200.149 153.949 194.681 145.853 189.882C141.449 187.271 141.444 187.261 144.112 186.592C148.24 185.556 154.593 181.289 160.372 175.672C164.587 171.574 165.622 169.926 165.622 167.309C165.622 164.222 165.78 164.082 168.619 164.65C172.422 165.41 174.622 163.643 174.622 159.828C174.622 157.376 174.896 157.054 176.308 157.844C179.105 159.41 182.203 157.164 184.75 151.726C186.632 147.707 187.122 144.995 187.122 138.581C187.122 131.311 187.357 130.31 189.466 128.603C191.709 126.788 191.783 126.316 191.182 117.603C190.837 112.597 190.457 104.9 190.338 100.5C190.156 93.7591 189.679 91.7458 187.305 87.7078C185.756 85.0722 182.738 81.6478 180.599 80.0983L176.71 77.281L179.406 76.0526C182.049 74.8484 182.063 74.7946 180.112 73.3297C177.391 71.2861 164.384 64.8374 157.335 62.037C152.004 59.919 151.67 59.6046 153.084 58.0419C154.475 56.5051 154.408 56.1474 152.37 54.2331C147.42 49.5832 136.385 49.4347 124.741 53.8615L119.36 55.9072L115.352 53.8625C111.802 52.0512 110.853 51.9554 107.039 53.0233C104.671 53.6863 98.1353 57.3295 92.5158 61.1194C86.8963 64.9092 80.4588 68.4806 78.2102 69.0559C75.9616 69.6311 72.3554 70.7818 70.1964 71.613C66.6342 72.9844 66.1869 72.9741 65.3631 71.502C63.3746 67.9487 58.3165 63 56.6733 63C55.7155 63 54.0746 63.9466 53.0269 65.1037C51.3771 66.9256 51.1004 68.9681 50.961 80.3537C50.8725 87.5841 50.5207 96.425 50.1792 100C49.4303 107.839 50.9923 113.771 55.5492 120.394L55.5771 120.435C56.9425 122.419 57.768 123.619 58.206 124.947C58.8757 126.977 58.639 129.307 58.0404 135.198L58.0324 135.276C57.376 141.736 57.5179 142.405 61.0694 149.591C63.1185 153.737 65.4311 157.373 66.2085 157.672C67.3055 158.093 67.6219 160.629 67.6219 169.002C67.6219 176.909 68.1478 181.492 69.5916 186.166C71.4094 192.052 71.4489 192.966 70.1035 198.022C68.0422 205.768 68.2159 211.214 70.6219 214.273C71.7219 215.671 72.6219 217.675 72.6219 218.726C72.6219 222.49 75.7162 230.959 78.1466 233.847C81.2656 237.554 81.3913 242.859 78.5886 252.503C76.4498 259.863 76.6154 264.153 79.2333 269.215C80.0253 270.747 81.3046 272 82.0762 272C85.4026 272 86.6219 274.98 86.6219 283.111C86.6219 291.914 87.4751 294.206 95.2326 306.249C97.6237 309.961 100.499 314.798 101.621 316.999C103.985 321.633 105.321 322.047 106.229 318.429ZM96.3866 300.946C99.816 306.692 102.622 311.755 102.622 312.196C102.622 312.638 102.877 313 103.189 313C104.222 313 102.496 308.622 97.5473 298.684L92.6593 288.868L94.8906 285.851C97.009 282.985 97.1219 281.901 97.1219 264.416C97.1219 250.837 97.4347 246 98.3129 246C98.9679 246 99.7865 246.457 100.132 247.016C100.477 247.575 101.19 247.767 101.716 247.442C103.422 246.387 101.492 236.72 98.0081 228.874C94.1435 220.171 94.0155 218.894 96.2408 211.239C97.8938 205.553 97.7961 192.719 96.068 188.56C94.2465 184.175 115.398 201.107 118.479 206.5C119.599 208.46 119.644 208.462 120.764 206.584C121.732 204.962 122.085 204.886 123.069 206.084C123.709 206.863 127.415 210.583 131.304 214.351C137.501 220.355 138.628 221.067 140.416 220.11C142.133 219.191 143.123 219.576 146.685 222.552C152.725 227.599 154.518 228.435 155.244 226.543C156.308 223.771 157.262 224.891 160.105 232.25C162.04 237.258 164.099 240.591 166.764 243.027C168.886 244.967 170.622 247.058 170.622 247.674C170.622 248.637 172.638 250.572 179.553 256.243C180.389 256.929 181.123 257.018 181.319 256.458C183.43 250.431 188.584 254.271 190.126 263.021C190.907 267.458 192.26 269.751 194.521 270.468C195.567 270.8 196.723 272.293 197.09 273.786C198.178 278.21 200.316 280.743 206.073 284.426C209.066 286.34 212.282 289.078 213.22 290.51C214.159 291.942 216.995 294.526 219.524 296.254C222.053 297.981 226.713 301.852 229.879 304.856C233.046 307.861 235.903 310.052 236.229 309.727C236.554 309.401 236.51 307.295 236.13 305.047C235.259 299.895 230.019 292.011 223.03 285.336C219.171 281.65 217.622 279.419 217.622 277.546C217.622 271.739 212.666 265.499 203.494 259.759C201.73 258.655 200.634 256.861 200.16 254.307C199.169 248.965 196.331 244.76 190.15 239.48C186.732 236.56 183.9 232.981 182.25 229.496C180.109 224.974 178.88 223.683 174.907 221.782C171.803 220.298 169.155 218.024 167.332 215.279C165.79 212.957 163.162 210.257 161.492 209.279C159.822 208.301 157.863 206.09 157.138 204.367C155.726 201.007 150.769 197.232 138.829 190.427L131.333 186.155L135.727 185.06C145.454 182.638 157.174 175.424 160.65 169.72C162.021 167.47 162.433 165.54 162.018 163.315C161.139 158.606 162.11 157.759 166.352 159.532C170.537 161.28 171.074 160.828 172.048 154.736C172.653 150.951 172.779 150.832 174.509 152.398C177.055 154.702 179.622 153.445 179.622 149.893C179.622 148.087 180.145 147 181.015 147C183.743 147 184.421 141.398 182.478 134.912C181.399 131.312 181.511 130.89 184.428 127.568C188.243 123.223 189.275 118.329 187.558 112.727C186.846 110.402 186.335 105.8 186.423 102.5C186.622 95.0697 185.296 90.8369 181.368 86.3631C177.514 81.9735 173.572 79.9319 168.565 79.7322C166.396 79.6458 164.622 79.4542 164.622 79.3067C164.622 79.1591 166.759 77.941 169.372 76.5997L174.122 74.1612L166.122 70.4707C155.5 65.5707 144.109 61.004 142.455 60.9831C141.722 60.9739 142.584 60.03 144.371 58.8857C146.158 57.7414 147.368 56.399 147.062 55.9025C145.991 54.1699 132.931 54.9072 127.622 57C121.568 59.3862 117.161 59.5298 113.211 57.4695C109.182 55.3685 105.679 56.6856 93.8938 64.7323C87.5604 69.0565 81.6202 72.1682 76.2358 73.9822C71.7732 75.4857 67.4129 77.0227 66.5463 77.3979C65.3904 77.8984 64.136 76.7375 61.8376 73.0401C58.5123 67.6908 56.1797 66.6673 55.0959 70.0819C54.7325 71.2269 54.5613 77.4144 54.7155 83.8319C54.8697 90.2493 54.6495 98.2 54.2262 101.5C53.5288 106.937 53.7127 107.969 56.187 112.5C61.5081 122.245 65.5347 130.517 65.578 131.794C65.6021 132.505 64.8759 132.955 63.9642 132.794C61.8049 132.411 60.4901 137.054 61.631 141.032C63.8545 148.785 69.6219 156.895 69.6219 152.269C69.6219 150.969 69.8878 150.866 70.8241 151.802C71.6698 152.648 71.9426 156.934 71.744 166.252C71.4968 177.852 71.7331 180.225 73.6434 185.33C75.7524 190.965 75.7717 191.372 74.2235 197.535C72.0135 206.333 72.1312 210.677 74.6219 212.232C75.9836 213.082 76.6219 214.564 76.6219 216.875C76.6219 222.017 78.693 227.865 81.6268 231.005C84.2108 233.771 84.2455 233.993 83.5244 243.161C83.1205 248.298 82.2505 254.401 81.591 256.724C79.9832 262.387 80.989 265.694 85.0478 268.089C89.5312 270.734 90.7496 274.124 90.4236 283.046L90.1513 290.5L96.3866 300.946Z" fill="#C1E042"/>
<path fill-rule="evenodd" clip-rule="evenodd" d="M560.947 230.075C561.445 229.577 562.374 228.125 563.009 226.851C564.777 223.304 568.88 222.276 573.146 224.31C577.106 226.198 580.902 226.445 585.223 225.093C586.817 224.594 590.945 223.631 594.394 222.952C599.623 221.923 600.575 221.427 600.115 219.977C599.786 218.941 600.181 217.999 601.092 217.65C601.934 217.327 602.622 216.599 602.622 216.031C602.622 214.571 589.898 214.869 585.622 216.429C582.722 217.488 581.436 217.462 578.122 216.279C574.334 214.927 568.259 215.051 564.327 216.56C562.08 217.422 562.129 215.592 564.622 205.5C567.037 195.724 567.182 189.276 565.039 186.908C562.358 183.946 566.187 182.779 575.983 183.574C581.439 184.017 585.006 183.865 586.375 183.132C587.908 182.312 588.559 182.311 588.832 183.131C589.309 184.563 599.622 183.259 599.622 181.767C599.622 181.192 598.834 180.123 597.872 179.392C596.247 178.159 596.279 178.062 598.313 178.032C601.996 177.979 601.716 176.5 597.391 173.176C594.176 170.705 592.272 170 588.818 170C584.984 170 584.547 170.205 585.622 171.5C586.339 172.365 586.437 173 585.851 173C585.293 173 584.577 172.325 584.26 171.5C583.879 170.507 582.311 170 579.621 170C577.386 170 573.942 170.675 571.968 171.5C567.595 173.327 564.614 173.429 564.646 171.75C564.66 171.062 565.139 168.475 565.71 166C567.376 158.788 567.084 154.402 564.739 151.422C562.024 147.971 562.052 147.719 565.586 143.693C567.217 141.836 569.013 139.1 569.579 137.614L570.606 134.911L584.864 135.489C592.706 135.807 601.282 136.296 603.923 136.575L608.724 137.082L608.423 131.328L608.122 125.573L590.622 125.292C580.24 125.126 570.138 125.503 565.787 126.22C557.954 127.51 556.878 128.442 555.211 135.38C554.59 137.964 554.737 138.203 556.649 137.703C558.339 137.261 558.646 137.493 558.132 138.823C552.812 152.587 551.379 163.905 553.987 171.557C554.886 174.197 555.622 176.501 555.622 176.678C555.622 176.855 553.022 177 549.844 177C543.13 177 539.622 178.908 539.622 182.559V185.004L543.357 183.002C545.411 181.901 548.389 181 549.974 181C552.502 181 552.77 181.276 552.157 183.25C548.492 195.065 547.665 202.581 550.134 201.634C551.28 201.194 551.524 201.592 551.142 203.277C550.864 204.499 550.179 208.513 549.619 212.196C549.059 215.878 548.309 219.703 547.951 220.696C547.413 222.192 547.724 222.116 549.776 220.25C553.491 216.873 554.649 217.303 553.338 221.573C552.455 224.45 552.517 225.317 553.655 226.021C554.819 226.74 554.676 227.314 552.846 229.262C551.623 230.564 550.622 231.879 550.622 232.185C550.622 233.019 559.899 231.123 560.947 230.075ZM564.145 131.981C563.307 132.676 562.622 133.415 562.622 133.622C562.622 134.743 564.5 133.76 565.038 132.359C565.565 130.986 565.418 130.924 564.145 131.981Z" fill="#42B4CA"/>
<path fill-rule="evenodd" clip-rule="evenodd" d="M557.763 237.839C559.894 237.201 563.449 235.128 565.664 233.232C569.401 230.033 569.903 229.874 572.654 231.013C574.472 231.766 577.84 232.027 581.37 231.688C587.225 231.126 605.513 227.442 606.285 226.67C606.519 226.436 606.921 224.953 607.179 223.373C607.437 221.793 608.143 218.338 608.748 215.696C609.992 210.26 609.85 209.944 605.944 209.464C604.392 209.273 601.097 208.821 598.622 208.459C595.763 208.041 591.997 208.357 588.295 209.326C583.567 210.563 581.34 210.64 576.478 209.736C571.117 208.739 570.551 208.405 571.091 206.561C571.422 205.427 571.97 201.196 572.309 197.159L572.924 189.817L576.023 190.283C577.728 190.54 583.397 190.314 588.622 189.782C593.847 189.25 599.584 188.857 601.372 188.907C603.159 188.958 604.622 188.549 604.622 187.999C604.622 187.938 604.622 187.88 604.621 187.826C604.621 187.758 604.621 187.695 604.621 187.634C604.621 187.601 604.622 187.568 604.622 187.536C604.623 187.508 604.623 187.481 604.624 187.453C604.648 186.667 604.851 185.885 606.403 179.91L606.698 178.774C607.737 174.773 608.595 171.183 608.605 170.795C608.614 170.408 607.043 169.794 605.113 169.432C603.183 169.07 600.383 167.813 598.889 166.638C596.768 164.97 594.205 164.364 587.163 163.866C582.207 163.515 577.095 163.63 575.803 164.121C572.382 165.422 571.845 164.617 572.64 159.381C573.159 155.962 572.942 153.978 571.84 152.058C570.426 149.593 570.503 149.149 573.042 145.127C575.734 140.862 575.788 140.835 580.438 141.422C584.987 141.997 603.029 143.151 611.122 143.384L615.122 143.5L614.936 132.614C614.834 126.627 614.384 121.374 613.936 120.942C613.488 120.509 609.747 119.925 605.622 119.643C605.129 119.61 604.663 119.578 604.222 119.547C600.978 119.324 599.026 119.19 597.072 119.125C594.12 119.027 591.164 119.086 583.741 119.235L581.622 119.277C568.487 119.538 559.714 120.81 555.501 123.065C551.756 125.069 546.488 140.928 548.686 143.578C549.227 144.23 548.971 147.606 548.042 152.062C547.193 156.133 546.611 161.886 546.748 164.847L546.997 170.229L543.059 171.573C538.505 173.127 532.622 179.024 532.622 182.035C532.622 183.17 533.309 185.427 534.148 187.05C535.453 189.574 536.253 190 539.693 190C543.673 190 543.707 190.032 543.166 193.25C540.798 207.342 540.676 209.402 542.111 210.987C543.366 212.374 543.364 213.285 542.099 218.04C541.299 221.043 540.64 224.527 540.634 225.781C540.619 228.592 543.082 229.693 545.289 227.862C546.803 226.606 546.802 226.749 545.276 229.7C544.366 231.461 543.622 233.838 543.622 234.983C543.622 238.654 550.444 240.032 557.763 237.839ZM549.679 229.889C548.188 232.811 547.982 233.976 548.891 234.344C553.425 236.178 563.047 232.642 564.594 228.573C565.825 225.336 569.773 224.292 572.79 226.405C575.653 228.41 582.091 228.451 587.622 226.5C589.96 225.675 593.729 224.993 595.998 224.985C600.93 224.966 603.136 223.782 602.299 221.601C601.961 220.72 602.048 220 602.493 220C603.605 220 605.771 215.049 605.119 213.995C603.928 212.068 593.597 211.744 587.539 213.443C582.616 214.825 580.895 214.915 577.963 213.948C575.997 213.299 572.168 212.981 569.453 213.242C565.217 213.649 564.605 213.488 565.138 212.108C567.101 207.027 568.75 196.73 568.399 191.75L567.994 186L580.558 185.942C587.468 185.911 594.922 185.554 597.122 185.15C600.692 184.495 601.102 184.125 600.934 181.708C600.83 180.219 601.095 179 601.523 179C602.591 179 604.631 174.343 603.888 173.6C603.558 173.27 602.641 173 601.85 173C601.058 173 599.074 171.875 597.44 170.5C594.709 168.202 593.669 168 584.579 168C577.384 168 573.73 168.458 571.168 169.679C569.232 170.603 567.441 171.153 567.19 170.901C566.938 170.65 567.147 168.656 567.653 166.472C569.163 159.96 568.78 153.763 566.701 151.058C564.834 148.629 564.841 148.593 567.973 144.415C569.705 142.105 571.572 139.503 572.122 138.635C573.006 137.238 575.092 137.158 590.122 137.942C599.472 138.43 608.032 139.118 609.144 139.471C611.077 140.086 611.149 139.77 610.778 132.307C610.564 128.013 609.879 124.159 609.256 123.743C608.632 123.327 606.066 123.066 603.552 123.164C601.039 123.261 598.451 123.013 597.802 122.611C597.153 122.21 596.622 122.349 596.622 122.92C596.622 123.611 592.528 123.773 584.372 123.404C576.135 123.032 569.84 123.286 565.158 124.181C559.124 125.335 557.903 125.943 556.023 128.732C553.357 132.688 552.008 139.002 553.615 139.996C554.448 140.511 554.296 142.421 553.048 147.1C551.191 154.07 550.634 166.586 551.951 171.75L552.781 175H548.278C542.492 175 537.352 178.87 537.818 182.875C538.206 186.202 540.831 186.741 545.198 184.389C547.038 183.398 548.794 182.838 549.1 183.145C549.406 183.451 549.009 186.356 548.217 189.601C547.425 192.845 546.593 198.079 546.368 201.232C546.035 205.92 546.203 206.763 547.291 205.86C549.024 204.422 548.999 205.555 547.105 214.5C545.164 223.661 545.198 224 548.063 224C551.58 224 551.966 225.405 549.679 229.889Z" fill="#C1E042"/>
<path fill-rule="evenodd" clip-rule="evenodd" d="M621.122 238.529C623.322 237.736 626.922 237.058 629.122 237.022C631.322 236.986 635.034 236.088 637.372 235.027C639.784 233.932 641.622 233.552 641.622 234.148C641.622 234.83 644.754 235.076 650.543 234.849C658.135 234.552 659.82 234.165 661.857 232.25C663.174 231.012 665.205 230 666.371 230C670.345 230 674.116 227.894 679.453 222.694C692.346 210.132 695.752 192.818 689.835 169.913C686.117 155.522 685.528 154.393 676.475 144.308C668.014 134.882 665.256 132.582 661.235 131.599C659.648 131.211 656.855 129.754 655.03 128.362C651.444 125.627 642.946 122.662 640.92 123.439C640.233 123.703 638.099 123.262 636.179 122.459C631.565 120.531 627.19 120.61 625.496 122.651C624.491 123.863 623.935 129.793 623.408 144.901C623.014 156.231 622.502 170.675 622.271 177C622.039 183.325 621.314 192.55 620.658 197.5C620.003 202.45 619.118 209.127 618.692 212.338C618.113 216.702 618.236 218.299 619.181 218.661C620.949 219.339 616.3 229.498 612.26 233.784C609.203 237.026 609.192 237.075 611.393 237.65C612.619 237.971 613.622 238.631 613.622 239.117C613.622 240.404 616.555 240.174 621.122 238.529ZM621.529 229.584C620.378 230.625 618.988 232.317 618.439 233.342C617.513 235.072 617.754 235.154 621.782 234.478C628.938 233.277 636.893 231.038 640.798 229.125C644.35 227.385 644.49 227.386 644.954 229.162C645.349 230.673 646.443 231 651.105 231C656.083 231 657.145 230.63 659.802 227.974C662.327 225.448 663.361 225.048 666.054 225.553C668.627 226.036 669.922 225.618 672.451 223.49C674.357 221.886 675.622 219.884 675.622 218.47C675.622 215.882 677.123 214.383 678.112 215.984C679.402 218.071 680.606 216.81 684.061 209.75C686.71 204.338 687.834 200.431 688.495 194.341C689.435 185.669 689.244 183.15 687.1 176C686.358 173.525 685.234 168.8 684.602 165.5C683.174 158.05 680.365 153.626 670.789 143.75C665.086 137.868 662.627 136 660.586 136C659.084 136 656.181 134.634 654.009 132.905C651.871 131.203 649.267 129.351 648.222 128.79C646.456 127.841 636.372 126.052 630.622 125.667L628.122 125.5L627.976 138C627.896 144.875 627.428 156.35 626.936 163.5C626.444 170.65 626.408 176.758 626.857 177.074C627.305 177.39 626.795 183.24 625.723 190.074C624.651 196.909 623.475 205.15 623.109 208.39C622.466 214.081 622.516 214.261 624.612 213.713C626.047 213.338 626.615 213.544 626.293 214.323C626.025 214.97 624.621 218.143 623.172 221.373C621.153 225.875 620.898 227.108 622.08 226.654C624.277 225.811 623.986 227.361 621.529 229.584Z" fill="#C1E042"/>
<path fill-rule="evenodd" clip-rule="evenodd" d="M634.832 229.335C639.073 228.017 642.812 226.502 643.141 225.969C644.213 224.235 646.622 224.948 646.622 227C646.622 228.688 647.289 229 650.899 229C655.455 229 659.622 226.823 659.622 224.443C659.622 223.365 660.98 223 665 223C670.59 223 672.363 221.943 673.088 218.176C673.82 214.375 676.586 211.178 678.669 211.723C680.256 212.137 681.11 211.177 683.187 206.638C686.581 199.226 687.584 185.89 685.344 177.967C684.495 174.96 683.49 170.475 683.111 168C682.733 165.525 681.606 161.617 680.608 159.315C678.181 153.722 663.08 138 660.134 138C658.917 138 655.975 136.589 653.595 134.865C651.215 133.141 647.245 130.836 644.772 129.742C640.8 127.985 640.146 127.93 639.169 129.266C638.191 130.605 637.662 130.566 634.592 128.932C632.684 127.915 630.821 127.065 630.453 127.042C630.085 127.019 629.849 131.612 629.928 137.25C630.007 142.887 629.677 153.671 629.194 161.214C628.528 171.632 628.61 175.281 629.539 176.4C630.408 177.448 630.466 178.423 629.738 179.784C628.846 181.45 624.642 207.066 624.627 210.924C624.623 211.907 625.402 211.616 627.134 209.989L629.646 207.629L629.04 211.064C628.707 212.954 627.401 216.677 626.138 219.338C623.983 223.876 623.958 224.145 625.731 223.682C628.353 222.996 628.103 224.012 624.663 228.038C619.713 233.829 620.185 233.889 634.832 229.335ZM668.122 218C668.909 216.727 666.592 216.727 664.622 218C663.402 218.788 663.532 218.972 665.313 218.985C666.518 218.993 667.782 218.55 668.122 218ZM641.178 184C640.942 196.336 639.303 210.078 637.503 214.813C636.712 216.895 636.834 217.162 638.35 216.67C639.325 216.354 643.229 215.183 647.026 214.068C650.824 212.953 655.654 211.143 657.759 210.045C661.88 207.898 664.607 208.219 664.647 210.857C664.664 211.964 665.97 211.125 668.647 208.289C672.3 204.418 673.497 200.971 672.697 196.621C672.608 196.137 673.417 192.762 674.493 189.121C676.854 181.137 677.798 175 676.666 175C676.209 175 675.577 175.675 675.26 176.5C674.944 177.325 673.943 178 673.036 178C671.587 178 671.473 177.083 672.095 170.447L672.802 162.894L669.712 161.728C668.013 161.086 666.622 159.955 666.622 159.214C666.622 158.473 665.444 156.322 664.003 154.433C662.122 151.966 660.598 151 658.591 151C656.703 151 653.857 149.379 649.813 146C646.522 143.25 643.623 141 643.371 141C642.818 141 641.509 166.662 641.178 184Z" fill="#42B4CA"/>
<path fill-rule="evenodd" clip-rule="evenodd" d="M657.347 208.14C660.567 206.497 662.094 206.229 664.03 206.965C666.152 207.772 666.856 207.518 668.581 205.325C669.723 203.873 670.622 201.239 670.622 199.344C670.622 197.482 671.609 192.604 672.815 188.505C674.951 181.242 674.801 178.421 672.405 180.817C670.032 183.19 669.501 181.838 669.628 173.75L669.645 172.687V172.686C669.653 172.234 669.659 171.802 669.666 171.391C669.762 165.221 669.742 163.582 669.01 163.15C668.745 162.994 668.387 162.996 667.907 162.999C667.84 163 667.771 163 667.7 163C666.402 163 665.414 161.901 664.662 159.621C663.147 155.03 660.13 152.333 658.253 153.891C657.126 154.826 655.751 154.057 651.334 150.02L645.821 144.981L645.182 150.74C644.831 153.908 644.113 166.85 643.586 179.5C643.06 192.15 642.197 204.525 641.669 207C641.141 209.475 640.689 212.031 640.666 212.679C640.611 214.15 651.23 211.261 657.347 208.14ZM647.306 185C647.068 192.425 646.523 200.688 646.096 203.363L645.319 208.225L648.635 207.497C650.459 207.097 654.01 205.674 656.526 204.336C659.321 202.85 661.972 202.122 663.339 202.465C665.173 202.925 665.682 202.527 666.157 200.263C667.558 193.593 668.629 189.146 669.183 187.702C669.645 186.498 669.283 186.276 667.583 186.72C665.401 187.291 665.391 187.234 666.116 178.076C666.795 169.492 666.701 168.722 664.744 166.9C663.589 165.823 661.979 163.658 661.168 162.088C660.356 160.519 658.586 158.957 657.234 158.617C655.882 158.278 653.391 156.835 651.699 155.411L648.622 152.822L648.427 158.661C648.319 161.872 648.121 166.075 647.985 168C647.85 169.925 647.544 177.575 647.306 185Z" fill="#C1E042"/>
<path fill-rule="evenodd" clip-rule="evenodd" d="M719.622 147.472C719.622 144.695 719.311 144.181 717.948 144.705C716.71 145.18 716.432 144.937 716.879 143.771C717.331 142.595 716.66 142.042 714.234 141.587C709.866 140.767 704.965 142.594 704.236 145.312C703.335 148.67 703.507 149.515 704.822 148.2C706.64 146.382 707.819 146.764 706.721 148.815C706.112 149.952 706.09 152.1 706.662 154.565C707.164 156.729 707.585 163.545 707.598 169.713C707.617 178.81 707.225 181.923 705.517 186.213C703.678 190.831 703.496 192.701 704.079 201C704.446 206.225 704.713 211.625 704.673 213C704.177 229.905 704.881 233.622 707.611 228.52C709.201 225.549 710.152 225.363 711.542 227.75C712.102 228.712 712.617 229.05 712.685 228.5C713.247 223.981 714.804 207.513 715.049 203.5C715.216 200.75 715.855 197.257 716.467 195.739C717.08 194.22 717.323 191.07 717.007 188.739C716.57 185.509 717.087 182.833 719.178 177.5C721.495 171.588 721.903 169.112 721.805 161.582C721.72 155.12 721.257 151.577 721.947 151.869C721.213 151.25 719.622 149.193 719.622 147.472ZM713.429 165.474C713.121 165.166 712.562 165.721 712.186 166.707C711.644 168.132 711.758 168.247 712.746 167.267C713.429 166.588 713.737 165.781 713.429 165.474Z" fill="#42B4CA"/>
<path fill-rule="evenodd" clip-rule="evenodd" d="M722.122 152C722.057 151.935 721.999 151.891 721.947 151.869C722.013 151.925 722.072 151.969 722.122 152Z" fill="black"/>
<path fill-rule="evenodd" clip-rule="evenodd" d="M706.767 238.517C709.451 235.688 710.622 235.361 710.622 237.441C710.622 239.865 712.721 240.346 714.679 238.371C717.256 235.772 719.622 225.897 719.622 217.74C719.622 213.656 720.218 209.747 721.103 208.037C722.04 206.225 722.741 201.163 723.014 194.243C723.355 185.606 724.027 181.675 726.217 175.504C728.956 167.789 728.975 167.571 727.808 157.072C726.909 148.991 726.904 145.712 727.788 143.372C729.452 138.962 728.366 137 724.26 137C722.032 137 720.62 136.437 720.217 135.386C719.702 134.046 718.652 133.891 714.021 134.469C704.742 135.629 701.413 137.199 700.011 141.079C698.219 146.035 698.282 154.473 700.122 156C702.451 157.933 702.257 179.938 699.872 184.3C698.339 187.103 698.155 190.028 698.392 207.872C698.591 222.94 699.072 229.58 700.236 233.372C701.103 236.193 701.98 239.062 702.185 239.75C702.751 241.643 704.162 241.263 706.767 238.517ZM703.023 228.307C701.682 223.695 701.574 221.72 702.454 217.908C703.175 214.782 703.218 212.078 702.581 209.857C700.928 204.094 701.441 192.465 703.622 186.26C706.807 177.198 706.138 153.173 702.64 151.011C701.806 150.496 701.813 149.127 702.666 145.738C703.545 142.25 704.45 140.92 706.47 140.146C709.655 138.927 717.622 138.92 717.622 140.136C717.622 140.611 718.972 141 720.622 141C723.804 141 724.367 141.854 722.449 143.772C721.588 144.633 721.563 145.575 722.356 147.315C723.541 149.916 723.884 153.089 722.122 152C722.863 152.74 724.095 158.227 724.099 163.285C724.104 169.83 723.628 172.516 721.756 176.5C720.095 180.036 719.289 183.841 719.004 189.5C718.282 203.826 717.989 206.459 716.797 209.315C716.151 210.863 715.622 215.311 715.622 219.199C715.622 223.087 715.109 227.979 714.482 230.072L713.342 233.876L711.534 231.688L709.726 229.5L708.117 231.75C707.232 232.987 706.097 234 705.593 234C705.09 234 703.933 231.438 703.023 228.307Z" fill="#C1E042"/>
<path fill-rule="evenodd" clip-rule="evenodd" d="M720.34 120C721.189 118.955 721.568 118.879 721.59 119.75C721.636 121.544 723.622 121.3 723.622 119.5C723.622 118.675 724.249 118 725.015 118C726.55 118 727.622 115.897 727.622 112.883C727.622 111.809 728.346 109.824 729.232 108.473C730.192 107.008 730.549 105.306 730.117 104.258C729.718 103.291 729.18 100.7 728.921 98.5C728.428 94.3085 726.479 92 723.431 92C722.436 92 721.593 92.5625 721.559 93.25C721.524 93.9375 721.088 93.4875 720.591 92.25C719.888 90.5011 718.885 90 716.088 90C714.11 90 711.591 90.4814 710.491 91.0699C709.392 91.6584 707.57 92.3174 706.443 92.5344C702.534 93.2873 700.394 98.1157 699.089 109.129C698.355 115.318 699.581 118.977 702.407 119.035C703.35 119.055 705.247 119.732 706.622 120.541C709.81 122.416 718.662 122.067 720.34 120ZM705.878 115.808C706.524 116.587 707.968 117.612 709.087 118.086C710.206 118.561 712.416 118.735 713.997 118.474C715.578 118.213 717.46 118 718.18 118C718.899 118 719.766 117.123 720.106 116.051C720.514 114.765 721.273 114.312 722.337 114.721C723.544 115.184 723.727 114.983 723.064 113.92C721.914 112.076 721.61 110 722.491 110C723.89 110 725.364 104.29 724.406 102.579C723.803 101.501 723.831 100.453 724.486 99.6641C725.905 97.954 724.335 95.7891 722.255 96.5874C721.299 96.9541 719.793 96.5862 718.835 95.7517C717.893 94.9318 716.447 94.039 715.622 93.7677C713.696 93.1344 709.021 95.4851 707.702 97.7499C706.731 99.4166 706.681 99.4166 706.652 97.75C706.604 94.9797 704.924 95.716 704.37 98.75C703.586 103.046 704.575 114.238 705.878 115.808ZM701.622 109C701.089 109.825 700.653 111.4 700.653 112.5C700.653 114.156 700.819 114.242 701.622 113C702.155 112.175 702.591 110.6 702.591 109.5C702.591 107.844 702.425 107.758 701.622 109Z" fill="#C1E042"/>
<path fill-rule="evenodd" clip-rule="evenodd" d="M719.171 114.92C719.538 114.326 718.89 113.176 717.73 112.363C716.571 111.551 715.629 110.125 715.637 109.193C715.648 108.028 715.891 107.875 716.417 108.702C717.565 110.508 722.046 107.975 722.431 105.302C722.662 103.705 722.149 103.071 720.431 102.827C718.727 102.586 718.118 101.845 718.107 100C718.095 98.1805 717.483 97.413 715.857 97.1804C714.628 97.0047 713.622 96.4272 713.622 95.8971C713.622 95.367 711.97 96.5854 709.951 98.6047C706.47 102.085 706.376 102.347 708.142 103.638C709.166 104.387 711.043 105 712.313 105C714.123 105 714.622 105.553 714.622 107.559C714.622 109.025 714.191 109.852 713.613 109.494C712.012 108.505 708.784 109.931 708.4 111.797C708.207 112.734 708.741 114.048 709.586 114.718C711.499 116.235 718.27 116.378 719.171 114.92ZM713.681 112C713.099 112 712.622 112.45 712.622 113C712.622 113.55 712.82 114 713.063 114C713.305 114 713.782 113.55 714.122 113C714.462 112.45 714.263 112 713.681 112Z" fill="#42B4CA"/>
<path d="M710.956 106.75C710.707 106.337 709.405 106 708.063 106C705.956 106 705.622 106.463 705.622 109.385V112.77L708.515 110.135C710.107 108.686 711.205 107.162 710.956 106.75Z" fill="#42B4CA"/>
<path d="M721.122 111C720.782 110.45 720.054 110 719.504 110C718.954 110 718.782 110.45 719.122 111C719.462 111.55 720.19 112 720.74 112C721.29 112 721.462 111.55 721.122 111Z" fill="#42B4CA"/>
<path d="M722.75 99.25C724.019 97.6312 723.972 97.61 722.122 98.967C721.022 99.7739 719.934 100.561 719.705 100.717C719.476 100.873 719.758 101 720.333 101C720.907 101 721.995 100.212 722.75 99.25Z" fill="#42B4CA"/>
<path fill-rule="evenodd" clip-rule="evenodd" d="M819.666 263.69C818.542 258.868 817.622 252.972 817.622 250.587C817.622 248.202 817.015 244.507 816.273 242.376C815.531 240.244 814.634 232.651 814.281 225.503C813.922 218.247 813.193 212.357 812.63 212.169C811.07 211.65 811.44 209.007 813.165 208.345C814.392 207.874 814.569 206.807 814.028 203.127C813.655 200.582 812.978 197.503 812.524 196.285C811.553 193.68 812.533 192.86 817.588 192.046C820.699 191.545 821.159 191.09 821.435 188.239C821.608 186.457 821.833 185.007 821.935 185.015C822.038 185.023 823.922 185.679 826.122 186.471C830.557 188.069 840.2 188.491 841.045 187.125C841.568 186.279 837.447 184.91 829.107 183.161C826.72 182.66 822.538 182.741 818.791 183.361C811.91 184.498 810.668 183.867 810.637 179.217C810.629 177.961 809.562 174.811 808.266 172.217C806.97 169.623 805.646 165.925 805.324 164C804.441 158.717 798.056 132.449 795.723 124.5C794.593 120.65 793.422 116.251 793.12 114.725C792.818 113.198 791.008 110.219 789.097 108.104C787.186 105.988 785.622 103.78 785.622 103.197C785.622 102.613 787.019 101.141 788.727 99.9252C791.571 97.9002 791.778 97.3771 791.19 93.7033C790.089 86.8155 789.08 86.0655 786.951 90.5536C785.12 94.4143 784.965 94.5 779.798 94.5C775.339 94.5 774.223 94.8882 772.631 96.994C769.545 101.075 768.09 107.637 769.631 110.517C770.748 112.603 770.616 113.74 768.681 118.719C767.446 121.899 766.353 126.845 766.252 129.712C766.112 133.719 765.486 135.568 763.546 137.712C758.848 142.902 758.236 144.161 757.54 150.066C757.157 153.308 755.839 157.882 754.61 160.23C753.381 162.579 752.233 166.75 752.058 169.5C751.884 172.25 750.815 176.283 749.682 178.461C746.71 184.177 746.938 185.387 750.841 184.606C757.852 183.204 747.917 187.729 740.128 189.485C736.617 190.277 734.622 191.738 734.622 193.516C734.622 194.502 735.521 194.559 738.623 193.772C744.352 192.318 746.028 193.926 745.288 200.172C744.979 202.778 744.024 205.982 743.166 207.292C741.102 210.443 735.644 226.67 735.74 229.374C735.781 230.543 735.137 235.325 734.308 240C731.643 255.024 731.387 257.633 732.705 256.316C733.357 255.665 735.073 250.723 736.52 245.335C738.937 236.331 739.348 235.537 741.603 235.519C743.689 235.503 744.49 234.457 746.96 228.527C748.729 224.28 749.926 219.517 750.022 216.347C750.15 212.078 750.669 210.686 752.9 208.618C754.842 206.818 755.622 205.114 755.622 202.67C755.622 197.45 757.48 196.553 767.982 196.704C774.786 196.802 779.63 196.197 786.937 194.336C792.335 192.961 797.309 192.05 797.991 192.311C798.673 192.573 799.765 196.225 800.418 200.428C801.071 204.63 802.285 209.381 803.114 210.985C804.96 214.554 804.977 218.718 803.177 226.25C801.744 232.246 802.426 233.545 805.046 229.805C806.475 227.765 806.539 228.077 805.966 234.218C805.368 240.625 805.421 240.835 807.735 241.163C809.968 241.478 810.124 241.92 810.152 248C810.179 253.895 810.667 255.408 815.402 264.265C818.273 269.635 820.689 274.81 820.772 275.765C820.854 276.719 821.099 276.366 821.316 274.979C821.533 273.592 820.791 268.512 819.666 263.69ZM775.351 191.396C775.019 191.064 774.156 191.028 773.434 191.317C772.637 191.636 772.874 191.873 774.039 191.921C775.093 191.964 775.683 191.728 775.351 191.396ZM763.979 177.311C762.041 181.607 760.703 185.77 761.007 186.561C761.719 188.418 762.86 188.374 767.404 186.317C770.14 185.078 774.22 184.599 782.852 184.503C789.303 184.432 794.9 184.055 795.289 183.666C795.678 183.277 795.232 179.93 794.297 176.229C793.363 172.528 792.147 166.183 791.596 162.128C790.456 153.734 781.927 117.445 780.441 114.664C779.901 113.655 779.236 113.053 778.961 113.327C778.687 113.601 777.394 119.291 776.088 125.972C774.774 132.688 772.798 139.597 771.667 141.427C770.398 143.48 769.622 146.448 769.622 149.246C769.622 151.726 768.901 155.482 768.019 157.592C766.998 160.037 766.613 162.892 766.96 165.464C767.393 168.685 766.792 171.077 763.979 177.311Z" fill="#42B4CA"/>
<path fill-rule="evenodd" clip-rule="evenodd" d="M770.031 183.489C772.808 182.647 778.828 182 783.894 182H792.849L792.353 179.25C792.081 177.738 791.329 172.9 790.683 168.5C789.035 157.268 780.367 120.837 779.56 121.747C779.193 122.161 778.349 125.425 777.685 129C777.02 132.575 775.404 137.875 774.092 140.778C772.78 143.682 771.958 146.713 772.266 147.514C772.573 148.316 771.916 152.016 770.804 155.736C769.693 159.456 768.824 164.75 768.872 167.5C768.934 170.993 768.156 174.186 766.291 178.096C766.16 178.371 766.034 178.636 765.911 178.892C764.234 182.402 763.416 184.113 763.909 184.675C764.377 185.21 766.032 184.706 769.262 183.723C769.509 183.648 769.765 183.57 770.031 183.489ZM773.459 164.891C773.602 166.983 772.768 171.153 770.975 177.312C770.505 178.929 770.859 179.036 774.285 178.312C776.395 177.865 780.456 177.598 783.309 177.718L788.496 177.936L787.608 175.218C787.12 173.723 786.24 168.45 785.652 163.5C785.064 158.55 783.562 150.496 782.315 145.602L780.047 136.705L778.376 142.102C775.853 150.247 773.275 162.198 773.459 164.891Z" fill="#C1E042"/>
<path fill-rule="evenodd" clip-rule="evenodd" d="M334.563 203C335.145 203 335.622 203.45 335.622 204C335.622 204.55 335.423 205 335.181 205C334.938 205 334.462 204.55 334.122 204C333.782 203.45 333.98 203 334.563 203Z" fill="black"/>
<path fill-rule="evenodd" clip-rule="evenodd" d="M826.618 279.194C826.616 274.412 825.985 266.45 825.217 261.5C824.448 256.55 823.334 248.225 822.742 243C822.149 237.775 821.128 228.775 820.474 223C819.819 217.225 819.37 211.375 819.477 210C819.584 208.625 819.661 205.67 819.65 203.433C819.632 199.753 819.966 199.206 823.174 197.676C825.264 196.68 827.728 196.239 829.178 196.603C830.658 196.975 832.565 196.612 833.97 195.692C835.253 194.851 838.287 193.634 840.712 192.988C845.682 191.665 848.17 189.774 850.259 185.734C851.404 183.521 851.434 182.876 850.407 182.525C849.7 182.284 846.422 181.133 843.122 179.968C835.723 177.355 825.334 175.744 820.476 176.456L816.831 176.99L814.25 170.543C811.784 164.383 810.914 160.961 806.611 140.5C805.57 135.55 803.572 128.159 802.17 124.075C800.769 119.991 799.622 115.595 799.622 114.305C799.622 113.015 798.493 110.173 797.114 107.988L794.607 104.015L796.614 102.008C799.352 99.27 799.121 94.8247 795.84 87.1032C792.241 78.6341 790.632 77.6677 786.558 81.528C784.832 83.1626 783.01 85.5582 782.507 86.8516C781.834 88.5852 781.138 89.008 779.858 88.4602C772.417 85.2752 768.649 88.0239 765.113 99.2175C763.204 105.261 762.714 108.429 763.193 111.625C763.709 115.066 763.394 116.633 761.603 119.53C759.849 122.369 759.495 124.053 759.951 127.382C760.553 131.773 760.229 132.522 754.106 140.898C752.201 143.503 751.622 145.531 751.622 149.591C751.622 153.003 750.938 156.061 749.698 158.193C748.64 160.012 747.294 164.148 746.707 167.384C745.188 175.764 741.118 184 738.497 184C734.883 184 730.648 187.315 728.444 191.868C725.54 197.866 726.617 199.409 733.975 199.8C737.081 199.965 739.622 200.54 739.622 201.078C739.622 201.617 738.331 204.632 736.753 207.779C732.872 215.517 728.622 229.415 728.622 234.365C728.622 236.589 728.106 243.154 727.475 248.954C726.479 258.111 726.538 259.994 727.924 263.25C728.802 265.312 730.178 267 730.982 267C734.334 267 739.993 256.927 742.082 247.238C742.512 245.247 744.082 242.988 746.112 241.44C750.017 238.461 753.986 229.782 756.075 219.653C756.851 215.888 758.147 212.063 758.955 211.153C759.762 210.244 761.11 207.836 761.95 205.802L763.476 202.104L770.299 202.657C775.411 203.072 779.17 202.682 785.289 201.105L785.816 200.969L786.687 200.744C792.389 199.271 794.006 198.853 794.457 199.398C794.635 199.614 794.631 199.981 794.624 200.493L794.623 200.631L794.622 200.693L794.622 200.759L794.622 200.81C794.622 201.805 795.543 206.26 796.668 210.71C798.574 218.247 798.618 219.357 797.311 226.924C795.786 235.754 796.083 240 798.225 240C798.979 240 800.267 241.607 801.088 243.572C801.908 245.537 802.996 246.887 803.505 246.572C804.023 246.252 804.447 248.21 804.469 251.021C804.5 255.09 805.448 257.79 809.469 265.271C812.197 270.347 815.672 278.1 817.191 282.5C820.906 293.262 821.461 293.888 824.332 290.55C826.34 288.217 826.621 286.817 826.618 279.194ZM813.143 263.881C814.947 266.972 817.695 272.988 819.249 277.25C820.803 281.512 822.423 285 822.848 285C824.302 285 823.594 272.515 821.606 263.098C820.515 257.927 819.617 252.077 819.61 250.098C819.604 248.119 818.944 244.042 818.144 241.037C817.345 238.033 816.955 234.521 817.278 233.234C818.008 230.327 815.679 212.154 814.483 211.414C814.001 211.116 814.305 210.174 815.158 209.321C816.639 207.84 816.559 202.503 814.971 196.75C814.585 195.355 815.118 195 817.601 195C820.013 195 821.099 194.326 822.418 192.006C824.323 188.659 827.016 188.103 828.51 190.75C829.301 192.152 829.749 192.251 830.76 191.25C831.454 190.562 833.273 190 834.802 190C838.123 190 845.622 187.153 845.622 185.891C845.622 185.401 844.597 185 843.344 185C842.092 185 840.179 184.387 839.094 183.637C835.617 181.235 825.71 180.063 817.178 181.046C813.31 181.491 813.218 181.427 812.44 177.734C812.004 175.663 810.782 172.274 809.725 170.203C808.669 168.131 807.336 163.976 806.764 160.968C804.236 147.675 800.45 132.266 798.135 125.847C796.753 122.016 795.622 117.76 795.622 116.391C795.622 113.177 793.499 109.142 790.174 106.036L787.537 103.571L791.133 100.536L794.729 97.5L792.616 90.6866C791.334 86.5529 790.034 84.0253 789.312 84.26C788.658 84.4728 787.076 86.5263 785.797 88.8234C783.297 93.3144 780.541 94.1859 776.543 91.75C774.773 90.6711 774.235 90.8135 772.613 92.791C771.58 94.051 769.76 97.651 768.568 100.791C766.731 105.629 766.565 107.11 767.478 110.5C768.424 114.014 768.261 115.077 766.136 119.251C764.203 123.046 763.83 124.958 764.279 128.753C764.814 133.267 764.612 133.782 760.232 139.103C756.248 143.942 755.622 145.32 755.622 149.252C755.622 152.001 754.637 155.918 753.132 159.151C751.762 162.093 750.637 166.21 750.632 168.3C750.626 170.389 749.871 173.539 748.954 175.3C748.036 177.06 746.751 180.3 746.098 182.5C744.899 186.537 744.022 187.139 737.39 188.478C735.709 188.817 734.074 190.159 733.14 191.965C730.704 196.675 731.065 197.028 737.622 196.342L743.622 195.715V199.52C743.622 201.813 742.589 205.087 741.022 207.76C737.6 213.6 732.852 228.454 732.795 233.5C732.771 235.7 732.275 240.425 731.694 244C730.419 251.839 730.305 260.686 731.468 261.405C732.685 262.157 736.43 253.663 738.482 245.5C739.93 239.738 740.626 238.444 742.422 238.182C743.622 238.006 745.296 236.881 746.142 235.682C748.236 232.709 752.622 218.606 752.622 214.842C752.622 212.775 753.43 211.152 755.122 209.821C756.842 208.468 757.627 206.864 757.637 204.677C757.665 198.998 758.603 198.476 768.338 198.723C774.293 198.874 779.805 198.31 785.451 196.973L785.462 196.97C792.885 195.212 795.688 194.548 796.919 195.646C797.667 196.313 797.834 197.629 798.103 199.745L798.104 199.75C798.436 202.363 799.589 206.759 800.665 209.519C802.97 215.431 803.044 218.263 801.122 227L801.079 227.196C799.873 232.677 799.481 234.46 800.052 234.858C800.328 235.049 800.827 234.918 801.567 234.725L801.622 234.71C803.37 234.253 803.622 234.68 803.622 238.094C803.622 241.586 803.885 242 806.103 242C808.457 242 808.553 242.223 807.984 246.375C807.274 251.554 808.627 256.144 813.143 263.881Z" fill="#C1E042"/>
</g>
<defs>
<filter id="filter0_dd_1_7" x="0" y="0.640747" width="901.149" height="370.207" filterUnits="userSpaceOnUse" color-interpolation-filters="sRGB">
<feFlood flood-opacity="0" result="BackgroundImageFix"/>
<feColorMatrix in="SourceAlpha" type="matrix" values="0 0 0 0 0 0 0 0 0 0 0 0 0 0 0 0 0 0 127 0" result="hardAlpha"/>
<feOffset/>
<feGaussianBlur stdDeviation="25"/>
<feComposite in2="hardAlpha" operator="out"/>
<feColorMatrix type="matrix" values="0 0 0 0 0 0 0 0 0 0 0 0 0 0 0 0 0 0 0.25 0"/>
<feBlend mode="normal" in2="BackgroundImageFix" result="effect1_dropShadow_1_7"/>
<feColorMatrix in="SourceAlpha" type="matrix" values="0 0 0 0 0 0 0 0 0 0 0 0 0 0 0 0 0 0 127 0" result="hardAlpha"/>
<feOffset/>
<feGaussianBlur stdDeviation="10"/>
<feComposite in2="hardAlpha" operator="out"/>
<feColorMatrix type="matrix" values="0 0 0 0 0.756863 0 0 0 0 0.878431 0 0 0 0 0.258824 0 0 0 1 0"/>
<feBlend mode="normal" in2="effect1_dropShadow_1_7" result="effect2_dropShadow_1_7"/>
<feBlend mode="normal" in="SourceGraphic" in2="effect2_dropShadow_1_7" result="shape"/>
</filter>
</defs>
</svg>
